<?xml version="1.0" standalone="no"?>
<!DOCTYPE svg PUBLIC "-//W3C//DTD SVG 20010904//EN"
 "http://www.w3.org/TR/2001/REC-SVG-20010904/DTD/svg10.dtd">
<svg version="1.0" xmlns="http://www.w3.org/2000/svg"
 width="800.000000pt" height="800.000000pt" viewBox="0 0 800.000000 800.000000"
 preserveAspectRatio="xMidYMid meet">
<metadata>
Created by potrace 1.14, written by Peter Selinger 2001-2017
</metadata>
<g transform="translate(0.000000,800.000000) scale(0.100000,-0.100000)"
fill="#000000" stroke="none">
<path d="M3874 7033 c5 -9 -3 -10 -30 -6 -29 5 -35 3 -29 -7 6 -10 4 -11 -6
-4 -20 12 -39 14 -39 3 0 -6 -8 -6 -19 1 -11 5 -22 7 -24 2 -3 -4 -33 -7 -66
-7 -34 0 -61 -2 -61 -5 0 -3 -25 -5 -56 -5 -39 0 -58 -4 -65 -15 -7 -12 -8
-11 -9 5 0 15 -3 16 -12 7 -7 -7 -22 -12 -35 -12 -13 0 -23 -6 -23 -12 0 -10
-3 -9 -9 1 -5 8 -11 9 -15 3 -3 -5 -16 -10 -28 -10 -32 -2 -51 -6 -67 -16 -10
-7 -12 -6 -6 4 6 9 1 8 -14 -3 -13 -8 -29 -13 -36 -11 -7 3 -16 0 -20 -6 -6
-9 -10 -9 -16 1 -6 10 -9 10 -9 2 0 -7 -7 -10 -15 -7 -8 4 -15 1 -15 -7 0 -7
-3 -9 -7 -6 -3 4 -12 2 -20 -4 -10 -9 -13 -8 -13 2 0 11 -2 11 -8 2 -4 -7 -21
-14 -38 -16 -16 -2 -35 -7 -42 -11 -7 -4 -16 -4 -22 -1 -5 3 -10 1 -10 -5 0
-6 -4 -8 -10 -5 -5 3 -10 2 -10 -4 0 -5 -8 -10 -17 -10 -41 -1 -53 -5 -53 -15
0 -6 -5 -4 -10 4 -8 12 -10 12 -10 1 0 -8 -3 -11 -7 -8 -3 4 -12 -1 -20 -11
-8 -9 -12 -11 -8 -5 4 9 1 11 -9 7 -9 -3 -16 -10 -16 -16 0 -5 -4 -7 -9 -3 -6
3 -26 -4 -46 -15 -20 -11 -33 -15 -29 -8 6 10 5 11 -8 1 -8 -7 -18 -10 -21 -6
-4 3 -7 1 -7 -6 0 -7 -6 -11 -14 -8 -8 3 -17 -1 -20 -10 -4 -9 -9 -13 -13 -10
-3 4 -12 2 -20 -4 -7 -6 -13 -8 -13 -3 0 5 -4 3 -9 -4 -5 -8 -20 -15 -33 -15
-18 -2 -24 -6 -20 -16 4 -9 1 -12 -7 -7 -7 5 -18 0 -27 -10 -9 -11 -13 -14
-10 -7 5 8 0 8 -19 0 -14 -7 -25 -15 -25 -19 0 -5 -7 -8 -15 -8 -8 0 -15 -4
-15 -10 0 -5 -7 -6 -17 -3 -11 4 -14 3 -9 -5 6 -11 -5 -17 -26 -13 -5 0 -8 -4
-8 -10 0 -5 -4 -7 -10 -4 -5 3 -10 1 -10 -4 0 -6 -5 -11 -10 -11 -10 0 -21 -8
-54 -37 -8 -7 -16 -9 -20 -6 -3 4 -6 1 -6 -6 0 -7 -4 -9 -10 -6 -5 3 -10 2
-10 -2 0 -5 -9 -14 -21 -21 -17 -11 -20 -11 -14 0 3 7 -3 2 -14 -11 -12 -13
-21 -20 -21 -17 0 4 -10 -3 -22 -14 -12 -11 -28 -18 -35 -16 -8 3 -10 -1 -6
-11 4 -10 2 -14 -4 -10 -6 4 -14 0 -17 -9 -3 -9 -13 -14 -21 -11 -9 4 -12 1
-8 -9 3 -9 -1 -14 -14 -14 -10 0 -25 -9 -33 -20 -8 -11 -20 -20 -28 -20 -7 0
-10 -4 -7 -10 3 -5 -1 -10 -9 -10 -8 0 -31 -16 -51 -35 -19 -20 -35 -33 -35
-30 0 3 -17 -11 -38 -31 -20 -20 -36 -40 -35 -45 2 -4 -3 -6 -11 -3 -8 3 -16
-4 -19 -17 -4 -13 -9 -20 -13 -17 -3 4 -20 -8 -37 -25 -17 -18 -35 -31 -39
-29 -4 1 -7 -1 -7 -5 3 -20 -2 -34 -11 -28 -6 3 -10 -2 -10 -11 0 -10 -3 -14
-6 -11 -8 8 -50 -44 -46 -56 1 -5 -2 -6 -8 -2 -5 3 -10 1 -10 -5 0 -6 -5 -8
-11 -4 -7 4 -10 1 -7 -7 2 -7 -13 -30 -34 -51 -21 -21 -36 -38 -33 -38 3 0 0
-6 -7 -14 -7 -8 -17 -11 -22 -8 -5 3 -6 1 -3 -5 4 -5 -4 -21 -16 -34 -12 -13
-22 -27 -22 -32 0 -5 -8 -15 -19 -22 -11 -8 -15 -19 -10 -27 4 -7 4 -10 -1 -6
-8 8 -57 -54 -54 -68 0 -4 -6 -11 -15 -16 -9 -5 -16 -16 -16 -23 0 -8 -4 -15
-10 -15 -5 0 -10 -9 -10 -19 0 -10 -7 -22 -16 -25 -8 -3 -12 -10 -9 -16 3 -6
-1 -13 -9 -16 -9 -3 -13 -10 -10 -15 3 -5 1 -9 -3 -9 -5 0 -16 -18 -26 -40 -9
-22 -21 -40 -27 -40 -5 0 -10 -3 -9 -7 3 -20 -14 -52 -25 -46 -6 3 -8 3 -4 -2
4 -4 2 -17 -4 -29 -7 -11 -11 -24 -10 -28 1 -5 -4 -8 -11 -8 -7 0 -13 -8 -14
-17 -4 -48 -8 -63 -19 -59 -8 3 -11 -6 -10 -24 1 -16 -2 -27 -6 -24 -7 5 -12
-10 -9 -28 0 -5 -4 -8 -10 -8 -5 0 -7 -4 -4 -10 3 -5 1 -10 -5 -10 -6 0 -8 -5
-4 -12 4 -6 -1 -17 -12 -25 -10 -8 -18 -16 -16 -18 1 -3 1 -7 1 -10 -1 -3 -3
-9 -4 -15 -1 -5 -3 -17 -4 -26 0 -8 -5 -13 -9 -10 -5 3 -8 -8 -7 -24 1 -17 -2
-30 -7 -30 -5 0 -7 -4 -4 -9 3 -5 -1 -12 -10 -15 -13 -5 -14 -9 -5 -20 9 -11
9 -15 0 -18 -6 -2 -13 -19 -16 -38 -2 -19 -9 -38 -16 -42 -9 -6 -8 -8 3 -8 10
0 11 -3 4 -8 -11 -7 -31 -56 -23 -58 2 0 -1 -7 -7 -15 -6 -8 -10 -22 -9 -31 2
-10 -1 -18 -7 -18 -6 0 -8 -9 -5 -20 3 -11 1 -22 -3 -25 -5 -3 -7 -14 -5 -25
2 -11 0 -20 -4 -20 -5 0 -8 -20 -7 -44 1 -24 -2 -42 -5 -40 -4 2 -10 -3 -13
-12 -4 -10 -2 -13 7 -8 9 6 9 4 -1 -8 -7 -8 -9 -24 -5 -33 4 -11 3 -16 -4 -12
-6 4 -9 -5 -8 -21 1 -15 -3 -30 -9 -34 -7 -5 -7 -8 2 -8 10 0 10 -5 1 -21 -9
-17 -8 -20 3 -13 10 6 11 5 1 -7 -7 -8 -11 -36 -10 -62 1 -26 -1 -47 -4 -47
-3 0 -4 -14 -3 -32 1 -17 -2 -42 -6 -54 -6 -15 -5 -24 3 -28 9 -3 8 -7 -3 -15
-8 -5 -11 -13 -7 -17 4 -4 1 -14 -6 -22 -8 -11 -9 -14 0 -9 8 5 11 0 10 -13
-1 -11 -5 -20 -10 -20 -4 0 -5 -5 -1 -11 10 -17 12 -109 1 -102 -5 3 -4 -4 2
-15 6 -10 8 -30 6 -42 -2 -13 -1 -28 2 -34 4 -6 8 -35 10 -65 1 -31 8 -58 15
-63 10 -6 10 -8 1 -8 -7 0 -13 -12 -13 -26 0 -16 4 -23 11 -18 7 4 7 -1 -1
-16 -10 -18 -10 -21 2 -14 11 6 11 5 -1 -9 -9 -11 -10 -17 -2 -17 6 0 11 -5
11 -11 0 -5 -6 -7 -12 -3 -9 6 -9 3 1 -9 7 -9 11 -23 8 -32 -4 -8 0 -21 8 -29
11 -11 12 -16 2 -19 -9 -4 -8 -8 3 -16 13 -10 13 -11 0 -11 -13 0 -13 -2 -1
-9 8 -5 11 -16 8 -25 -4 -9 -2 -16 2 -16 5 0 7 -10 3 -22 -4 -15 -2 -19 7 -13
10 6 11 3 2 -14 -7 -11 -8 -21 -3 -21 5 0 9 -16 10 -36 1 -20 7 -43 14 -52 10
-12 10 -14 1 -8 -7 4 -13 2 -13 -3 0 -6 4 -11 8 -11 5 0 9 -7 10 -15 1 -8 3
-22 4 -30 1 -8 4 -15 7 -15 3 0 7 -14 8 -32 1 -17 6 -34 10 -37 7 -5 12 -19
17 -46 1 -5 5 -16 9 -22 5 -7 5 -13 0 -13 -4 0 -1 -5 7 -10 13 -9 13 -10 0
-10 -12 0 -12 -2 -2 -9 7 -4 14 -16 16 -25 1 -10 8 -21 15 -26 9 -5 10 -9 2
-14 -8 -5 -6 -12 4 -23 9 -9 14 -22 11 -29 -3 -8 -1 -14 4 -14 6 0 10 -7 10
-15 0 -8 4 -15 8 -15 4 0 9 -8 10 -17 4 -37 8 -53 17 -60 4 -4 5 -2 0 6 -5 9
-4 12 3 7 6 -4 9 -13 5 -21 -3 -8 0 -15 7 -15 6 0 8 -4 5 -10 -3 -6 -2 -10 4
-10 6 0 7 -7 4 -17 -4 -11 -3 -14 5 -9 8 5 12 -1 12 -18 0 -14 5 -28 10 -31 6
-4 8 -11 5 -16 -4 -5 2 -9 12 -9 14 0 15 -2 5 -9 -11 -7 -11 -9 2 -14 10 -4
13 -13 9 -23 -4 -12 -3 -15 5 -10 11 6 18 -20 13 -47 -1 -5 2 -6 6 -4 11 6 28
-14 28 -33 0 -8 7 -14 15 -12 8 2 12 0 7 -4 -4 -4 0 -18 9 -32 11 -17 12 -22
3 -17 -8 4 0 -5 17 -21 17 -16 29 -35 27 -41 -3 -7 0 -13 5 -13 6 0 14 -9 17
-20 4 -11 11 -18 16 -15 5 3 6 -1 3 -9 -4 -11 0 -16 12 -16 15 0 16 -2 5 -9
-11 -7 -9 -10 7 -16 12 -3 21 -12 19 -18 -1 -7 3 -11 9 -10 7 1 11 -5 10 -15
0 -9 5 -16 12 -14 8 1 11 -2 8 -7 -4 -5 1 -16 9 -24 8 -9 15 -24 15 -34 0 -15
2 -16 10 -3 8 13 10 12 10 -2 0 -10 5 -18 11 -18 5 0 8 -4 5 -8 -8 -13 33 -54
46 -46 7 4 8 2 4 -4 -4 -7 -2 -12 4 -12 6 0 9 -4 5 -9 -3 -6 4 -15 15 -21 15
-8 20 -8 20 1 0 7 3 9 6 6 4 -4 1 -14 -7 -24 -9 -11 -10 -14 -1 -9 7 4 12 1
12 -9 0 -9 5 -13 10 -10 5 3 10 -1 10 -9 0 -9 7 -16 16 -16 10 0 14 -5 10 -16
-3 -8 -2 -13 2 -10 5 3 14 -4 22 -14 8 -10 17 -17 22 -14 4 3 8 -1 8 -8 0 -7
14 -24 30 -38 17 -14 30 -31 30 -38 0 -9 6 -12 16 -8 8 3 13 2 10 -2 -2 -4 2
-16 10 -27 8 -10 14 -16 14 -12 0 5 6 2 14 -5 8 -7 12 -16 10 -20 -3 -4 5 -12
16 -18 12 -6 18 -16 14 -23 -4 -7 -4 -9 1 -5 11 10 47 -11 40 -23 -4 -5 3 -9
14 -9 12 0 21 -7 21 -16 0 -8 4 -13 9 -9 5 3 17 -5 25 -17 9 -12 16 -19 16
-14 0 5 8 -1 19 -12 10 -12 21 -19 25 -15 3 3 6 -2 7 -13 0 -10 3 -14 5 -7 3
7 16 1 33 -18 15 -16 31 -26 34 -22 4 3 7 -1 7 -11 0 -9 4 -15 9 -11 6 3 14
-3 20 -12 6 -10 11 -14 11 -9 0 5 7 3 15 -4 8 -7 12 -17 8 -24 -3 -6 -3 -8 2
-4 9 9 85 -29 102 -51 7 -9 13 -12 13 -8 0 5 7 1 16 -8 9 -9 23 -14 31 -11 8
3 11 1 8 -4 -3 -6 1 -10 9 -10 9 0 16 -5 16 -11 0 -5 4 -8 9 -5 5 4 11 1 13
-4 3 -10 21 -16 51 -19 5 -1 5 -6 1 -13 -4 -6 -3 -8 4 -4 6 3 13 2 17 -4 4 -6
11 -8 16 -5 5 4 9 2 9 -3 0 -5 12 -15 28 -22 33 -17 32 -16 60 -25 12 -4 22
-11 22 -15 0 -7 80 -35 93 -32 4 1 7 -2 7 -7 0 -5 7 -12 16 -15 10 -4 13 -2 8
7 -4 6 2 3 14 -7 12 -11 22 -15 22 -11 0 5 7 0 16 -11 8 -10 13 -14 9 -7 -4 8
3 8 22 -2 15 -8 43 -18 61 -21 19 -4 36 -12 39 -20 2 -7 11 -10 18 -8 7 3 16
1 20 -5 9 -15 28 -14 19 2 -4 6 1 5 12 -4 10 -9 25 -14 33 -11 10 3 11 0 5 -9
-7 -12 -5 -12 9 0 14 11 18 11 23 -3 3 -9 9 -14 13 -11 4 2 25 -2 46 -10 22
-7 48 -11 58 -10 9 2 15 0 12 -6 -4 -5 8 -9 24 -9 18 0 31 -5 31 -12 0 -9 4
-8 10 2 9 13 10 13 10 0 0 -13 1 -13 10 0 5 8 10 11 10 5 0 -9 12 -12 90 -18
14 -1 27 -5 30 -9 3 -4 27 -9 53 -10 26 -2 47 -7 47 -13 0 -5 5 -3 10 5 5 8
10 10 10 4 0 -6 12 -10 27 -8 15 1 34 -3 42 -9 12 -10 13 -9 6 3 -7 13 -6 13
7 2 13 -10 17 -10 21 0 4 10 6 9 6 -1 1 -11 5 -10 17 5 8 10 13 13 9 7 -3 -7
0 -13 7 -14 7 0 23 -2 36 -3 12 -2 22 2 22 7 0 5 6 4 14 -2 17 -14 68 -10 62
5 -2 6 2 11 9 11 7 0 11 -6 8 -13 -3 -9 4 -12 26 -9 20 3 31 0 31 -8 0 -7 4
-6 10 3 7 11 12 12 21 3 14 -14 41 -5 32 11 -3 6 3 3 14 -7 11 -9 23 -14 27
-10 3 4 16 8 27 10 14 2 18 -1 13 -9 -5 -10 -4 -10 6 -1 7 6 19 9 28 6 10 -4
13 -2 8 5 -6 9 -1 9 18 1 20 -10 29 -9 43 2 10 8 14 9 10 2 -6 -9 4 -11 35 -6
24 3 59 6 80 6 20 1 35 4 33 8 -6 8 28 4 44 -6 10 -5 12 -4 7 3 -5 8 4 12 28
12 19 0 37 4 40 9 7 11 25 9 45 -3 10 -7 12 -6 6 4 -6 10 -1 12 18 8 15 -3 24
-1 21 3 -3 5 5 9 18 9 53 0 78 5 78 14 0 5 3 6 7 3 3 -4 13 -1 21 6 13 10 14
9 7 -3 -8 -13 -7 -13 8 -1 10 8 20 11 24 8 3 -4 12 1 20 11 14 16 14 16 9 -3
-5 -17 -4 -18 7 -5 13 16 30 23 65 23 12 1 22 5 22 10 0 5 7 7 15 3 8 -3 15
-1 15 4 0 6 5 10 11 10 5 0 7 -6 4 -13 -4 -6 0 -4 9 7 8 10 22 16 30 13 10 -4
13 -1 10 8 -4 9 2 13 20 11 14 -2 26 0 26 4 0 6 46 20 65 19 3 0 13 7 21 16 9
8 20 13 25 10 5 -4 9 -1 9 5 0 6 5 8 10 5 6 -3 10 -2 10 4 0 6 7 8 15 5 8 -4
15 -1 15 6 0 6 5 8 10 5 6 -3 10 -1 10 5 0 6 5 8 10 5 6 -3 10 -1 10 4 0 6 7
11 16 11 8 0 25 5 37 12 12 7 29 13 37 14 8 2 16 7 18 13 2 5 10 7 19 4 11 -4
14 -2 9 5 -5 8 2 12 19 12 15 0 24 4 20 10 -3 5 -1 10 6 10 7 0 21 8 32 17 15
13 18 14 12 3 -7 -12 -6 -13 7 -3 8 7 19 9 23 5 5 -4 5 -1 1 6 -4 7 -2 12 5
12 7 0 21 8 32 17 15 13 18 14 12 3 -6 -11 -3 -10 12 3 11 9 23 14 26 10 4 -3
7 -1 7 6 0 7 13 17 30 22 17 6 27 16 23 22 -4 7 0 8 11 4 9 -4 15 -3 12 1 -3
5 9 16 25 26 25 15 28 20 17 33 -11 13 -14 13 -28 -3 -9 -11 -22 -20 -30 -22
-8 -2 -20 -10 -26 -17 -6 -8 -14 -12 -17 -9 -3 4 -20 -4 -36 -16 -17 -12 -31
-18 -31 -13 0 4 -6 1 -13 -8 -7 -9 -22 -19 -35 -23 -12 -4 -22 -13 -22 -19 0
-7 -4 -6 -10 3 -8 13 -10 12 -10 -3 0 -10 -4 -15 -10 -12 -5 3 -10 1 -10 -5 0
-6 -4 -9 -9 -6 -5 3 -20 -3 -33 -14 -14 -11 -28 -16 -32 -13 -3 3 -6 1 -6 -6
0 -7 -4 -10 -9 -6 -5 3 -15 -1 -23 -8 -7 -8 -21 -13 -31 -11 -15 2 -16 0 -6
-12 10 -12 9 -13 -6 -8 -10 4 -21 1 -26 -7 -7 -12 -9 -12 -9 1 -1 13 -2 13
-13 -1 -7 -9 -16 -17 -22 -19 -18 -5 -40 -12 -55 -18 -8 -3 -17 -6 -20 -7 -3
-1 -18 -8 -35 -15 -16 -7 -34 -14 -40 -15 -5 0 -23 -7 -39 -13 -16 -7 -31 -10
-34 -8 -2 3 -11 -1 -18 -9 -8 -8 -21 -12 -29 -9 -8 4 -15 1 -15 -5 0 -6 -10
-11 -23 -11 -13 0 -29 -6 -36 -12 -11 -11 -12 -10 -6 2 8 13 7 13 -8 1 -9 -7
-17 -10 -17 -5 0 5 -4 3 -9 -5 -8 -12 -49 -21 -113 -24 -9 -1 -14 -5 -11 -10
3 -5 0 -7 -8 -5 -8 3 -22 1 -31 -3 -9 -5 -35 -11 -57 -13 -23 -2 -49 -10 -58
-17 -12 -10 -15 -10 -9 -1 4 6 3 12 -3 12 -5 0 -12 -4 -15 -8 -2 -4 -22 -9
-42 -10 -21 -2 -45 -8 -53 -15 -12 -9 -13 -9 -7 1 9 15 1 15 -26 1 -14 -8 -23
-8 -31 0 -6 6 -17 7 -26 2 -9 -5 -26 -7 -38 -6 -15 1 -23 -4 -24 -14 0 -12 -3
-11 -9 4 -5 11 -9 14 -9 7 -1 -7 -6 -10 -11 -7 -6 4 -17 2 -25 -5 -9 -8 -15
-8 -20 0 -5 8 -11 8 -21 -1 -11 -9 -14 -9 -14 1 0 10 -3 10 -15 0 -12 -10 -18
-10 -29 -1 -9 8 -16 8 -20 2 -4 -6 -22 -9 -41 -7 -19 1 -35 -1 -35 -6 0 -4 -5
-8 -11 -8 -5 0 -8 4 -5 9 3 4 -6 6 -19 3 -14 -2 -22 -9 -18 -15 3 -6 1 -7 -5
-3 -6 4 -9 14 -6 24 4 10 2 13 -3 7 -10 -12 -73 -15 -73 -3 0 5 -4 7 -10 3 -5
-3 -7 -13 -3 -23 3 -11 -1 -8 -12 6 -14 19 -19 21 -32 11 -9 -8 -17 -9 -21 -3
-4 5 -18 11 -32 13 -43 6 -45 6 -56 14 -6 3 -14 3 -18 0 -11 -11 -36 -12 -36
-1 0 6 -7 4 -17 -3 -11 -9 -14 -10 -9 -2 5 9 0 12 -16 12 -13 -1 -32 2 -42 6
-15 7 -17 5 -11 -6 7 -11 6 -12 -7 -2 -8 7 -18 10 -21 6 -4 -3 -7 -1 -7 4 0 6
-11 10 -25 8 -17 -1 -25 3 -26 14 0 10 -2 12 -6 4 -2 -7 -11 -13 -19 -13 -9 0
-12 4 -9 10 3 6 -1 7 -10 4 -8 -4 -23 0 -32 7 -12 10 -15 10 -9 2 9 -16 5 -16
-31 -1 -34 14 -53 19 -73 20 -8 0 -21 5 -27 10 -7 6 -20 8 -28 4 -8 -3 -15 -1
-15 3 0 5 -11 8 -25 7 -13 -2 -22 0 -20 4 3 5 -2 11 -11 14 -10 4 -13 2 -8 -7
6 -8 3 -8 -9 1 -9 8 -21 11 -27 7 -5 -3 -10 -1 -10 4 0 6 -8 11 -18 11 -10 0
-24 6 -31 13 -8 7 -11 7 -8 1 4 -7 -10 -3 -31 7 -20 11 -43 17 -51 14 -8 -3
-11 0 -8 8 4 12 -7 16 -55 20 -10 1 -18 5 -18 9 0 4 -5 8 -12 8 -6 0 -21 8
-32 17 -20 17 -20 17 -7 0 12 -15 12 -17 -3 -11 -9 3 -16 11 -16 17 0 6 -3 8
-6 4 -4 -3 -13 1 -21 9 -9 8 -22 13 -29 10 -8 -3 -14 -2 -14 2 0 5 -16 14 -35
21 -19 7 -35 17 -35 22 0 6 -5 7 -10 4 -6 -3 -10 -1 -10 5 0 7 -7 10 -15 6 -8
-3 -15 -1 -15 4 0 6 -6 10 -14 10 -7 0 -19 7 -26 15 -7 9 -19 14 -26 11 -8 -3
-17 2 -22 10 -5 9 -13 17 -18 17 -5 1 -8 5 -7 9 2 5 0 8 -5 7 -14 -2 -52 13
-52 21 0 8 -38 23 -52 21 -5 -1 -8 6 -8 15 0 8 -4 13 -9 9 -5 -3 -16 2 -24 10
-9 8 -23 15 -32 15 -9 0 -19 9 -22 20 -3 11 -9 17 -14 14 -5 -3 -18 5 -29 18
-11 13 -19 19 -20 14 0 -4 -13 6 -29 23 -17 18 -34 32 -38 33 -13 1 -49 28
-38 28 6 0 2 5 -8 11 -9 5 -22 7 -27 4 -6 -4 -9 -1 -8 7 2 7 -5 12 -15 11 -10
0 -16 2 -13 5 9 8 -15 33 -25 26 -5 -3 -9 2 -9 10 0 10 -9 16 -22 16 -19 0
-20 2 -8 10 10 6 11 10 3 10 -7 0 -26 14 -41 30 -16 17 -34 30 -41 30 -6 0
-10 4 -8 9 3 11 -42 51 -57 51 -6 0 -4 5 4 11 12 9 11 10 -7 6 -15 -3 -23 0
-23 8 0 8 -9 17 -20 20 -11 3 -20 13 -20 21 0 8 -6 14 -14 14 -8 0 -16 9 -18
20 -2 12 -7 20 -12 20 -5 -1 -14 9 -21 22 -6 13 -16 22 -22 21 -6 -1 -13 11
-17 27 -3 17 -9 30 -13 29 -5 -1 -15 -1 -23 0 -13 1 -13 2 0 11 13 8 12 10 -3
10 -10 0 -15 4 -12 10 3 6 1 10 -4 10 -6 0 -11 7 -11 15 0 9 -7 18 -15 21 -8
4 -12 10 -9 15 3 5 -2 9 -10 9 -9 0 -16 9 -16 20 0 11 -4 20 -10 20 -5 0 -10
7 -10 15 0 8 -4 15 -10 15 -5 0 -10 7 -10 16 0 8 -4 12 -10 9 -6 -3 -7 1 -4 9
3 9 1 16 -6 16 -6 0 -8 5 -5 10 3 6 -2 10 -12 10 -15 0 -16 2 -3 10 13 8 12
10 -3 10 -10 0 -15 5 -12 10 3 5 1 10 -5 10 -6 0 -9 4 -6 8 3 5 -4 15 -15 22
-10 8 -19 21 -19 28 0 8 -8 21 -18 30 -10 10 -11 13 -2 7 8 -5 5 2 -8 16 -12
14 -19 29 -15 32 3 4 1 7 -5 7 -7 0 -12 9 -12 19 0 11 -8 26 -18 33 -10 7 -17
23 -16 35 1 15 -3 20 -14 15 -10 -3 -13 -1 -8 6 3 6 2 13 -4 17 -6 4 -8 11 -5
16 4 5 2 9 -3 9 -6 0 -13 7 -16 16 -3 8 -2 12 4 9 6 -3 10 -1 10 4 0 6 -7 11
-16 11 -8 0 -12 4 -9 10 3 5 1 10 -4 10 -6 0 -11 3 -10 8 3 19 -14 51 -25 45
-6 -4 -5 1 3 10 9 11 10 17 2 17 -6 0 -11 7 -11 15 0 8 -5 15 -11 15 -8 0 -8
5 1 15 10 12 9 16 -4 21 -10 4 -15 13 -12 20 3 8 1 14 -5 14 -6 0 -7 5 -4 10
3 6 1 10 -5 10 -7 0 -10 6 -7 13 2 6 -2 20 -11 30 -9 10 -11 17 -4 17 6 0 9 7
6 15 -4 8 -10 12 -15 9 -5 -3 -9 -2 -8 3 4 23 -2 54 -10 49 -4 -3 -7 6 -5 19
1 14 -2 25 -7 25 -6 0 -7 4 -4 10 3 6 0 10 -7 10 -10 0 -10 2 1 9 10 6 10 10
1 13 -6 2 -13 16 -13 31 -1 15 -4 27 -8 27 -3 0 -6 11 -7 25 -3 46 -5 55 -13
55 -3 0 -9 9 -12 20 -3 11 0 20 5 20 6 0 3 10 -8 22 -10 12 -13 18 -5 13 10
-5 12 -4 7 4 -4 6 -10 23 -12 38 -3 15 -11 34 -17 42 -10 12 -9 13 3 6 13 -7
13 -6 2 7 -10 13 -10 17 0 21 10 4 10 6 -1 6 -11 1 -11 4 -1 16 10 12 9 16 -3
21 -9 3 -13 13 -9 26 4 16 2 19 -8 13 -10 -6 -11 -4 -4 6 12 20 14 39 2 39 -5
0 -8 8 -6 18 1 9 -2 23 -6 31 -7 11 -5 13 9 7 15 -5 16 -4 5 9 -8 10 -13 44
-13 90 0 53 -3 73 -11 68 -6 -4 -5 1 3 10 11 14 11 17 0 17 -11 0 -11 2 0 9
12 8 12 12 2 25 -9 11 -10 16 -2 16 6 0 11 5 11 11 0 5 -5 7 -12 3 -7 -5 -8
-3 -2 7 13 21 14 39 1 39 -8 0 -7 3 2 9 9 6 10 11 2 15 -8 5 -8 13 0 29 9 16
9 22 0 25 -6 2 -11 8 -11 13 0 6 3 8 8 6 4 -3 8 6 8 19 1 15 -2 21 -10 17 -6
-4 -5 1 3 10 7 9 10 17 6 17 -4 0 -1 8 6 17 8 9 9 14 3 10 -14 -8 -25 28 -13
40 6 6 10 46 11 91 1 45 6 82 10 82 4 0 6 10 4 23 -2 12 1 32 5 45 6 15 5 21
-1 17 -6 -3 -10 -1 -10 4 0 6 5 11 10 11 6 0 10 5 10 11 0 5 -6 7 -12 4 -7 -4
-5 0 5 8 14 11 15 16 5 21 -10 4 -10 7 -1 12 7 3 9 12 6 21 -4 9 -2 14 3 11 5
-4 10 6 11 20 1 15 6 45 12 66 5 22 8 44 5 48 -3 4 0 8 6 8 6 0 9 4 5 9 -3 5
-1 12 4 15 5 4 8 17 7 31 -2 13 1 22 5 19 5 -3 9 6 9 20 0 14 4 27 9 31 6 3 8
14 6 25 -2 11 1 20 7 20 5 0 8 7 4 15 -3 8 0 15 7 15 8 0 6 4 -3 10 -13 8 -13
10 2 10 11 0 15 5 12 15 -3 8 4 28 16 45 12 16 17 30 11 30 -19 0 -12 20 11
29 14 5 18 10 10 15 -9 5 -6 16 10 39 12 17 17 27 10 23 -8 -5 -10 -2 -6 8 3
9 11 16 18 16 7 0 6 3 -2 9 -11 7 -11 9 1 14 8 3 17 19 20 37 5 20 11 29 18
24 8 -4 9 -3 5 4 -4 7 -4 18 1 25 4 6 8 14 9 17 6 24 30 70 36 70 4 0 8 6 8
14 0 22 26 66 35 58 5 -4 5 1 2 11 -4 9 -2 17 3 17 6 0 10 5 10 12 0 6 12 27
27 46 15 20 20 32 12 28 -8 -4 -6 -1 3 7 10 8 18 19 18 26 0 6 4 11 9 11 5 0
11 8 14 18 8 26 40 76 54 85 7 4 10 14 6 22 -4 11 -1 13 13 8 11 -4 15 -3 11
4 -4 6 2 21 13 33 11 12 22 31 25 41 4 11 11 19 16 19 5 0 9 7 9 16 0 8 5 12
10 9 6 -3 10 1 10 10 0 9 5 13 10 10 6 -4 10 -3 9 2 -3 17 1 36 7 31 10 -11
41 26 36 42 -3 8 -2 12 3 8 8 -8 45 28 45 44 0 5 5 6 10 3 5 -3 10 1 10 9 0 9
8 16 18 16 14 0 15 2 2 10 -10 6 -11 10 -3 10 16 0 47 30 56 54 4 9 10 15 14
13 5 -3 14 1 21 9 7 8 10 14 6 14 -4 0 13 19 37 42 24 22 38 38 32 34 -7 -4
-13 -5 -13 -2 0 3 15 13 33 21 17 8 24 13 15 10 -10 -2 -18 -2 -18 1 0 6 53
28 63 26 4 -1 6 4 5 10 -2 7 5 12 14 12 10 -1 15 2 12 7 -3 5 0 9 6 9 6 0 8 5
5 10 -3 6 1 10 10 10 9 0 13 5 10 10 -5 8 10 15 18 8 1 -2 17 13 36 32 18 19
40 34 48 32 8 -2 13 1 10 6 -3 4 4 15 15 23 12 8 33 25 47 39 13 14 21 18 17
10 -4 -8 0 -6 8 4 9 11 16 16 16 12 0 -4 7 0 16 8 8 9 20 13 26 10 7 -4 8 -2
4 4 -4 7 -2 12 4 12 6 0 9 4 6 9 -3 4 6 7 19 6 14 -2 23 2 22 8 -1 7 4 11 11
9 7 -1 15 5 18 13 3 8 10 12 16 9 5 -3 18 2 28 11 10 9 24 14 30 10 6 -3 9 -3
8 2 -2 4 0 8 4 8 4 0 14 9 23 20 9 11 13 13 9 5 -6 -12 -3 -11 12 2 10 9 23
18 29 20 5 2 9 7 7 11 -1 5 3 5 9 1 6 -3 15 -1 19 5 6 11 24 18 53 20 5 1 5 6
1 13 -5 7 -2 9 9 5 8 -3 21 1 27 8 7 8 15 14 18 13 15 -3 62 15 62 23 0 5 9 9
19 9 11 0 23 5 26 11 4 6 13 8 20 5 8 -3 15 0 17 6 2 6 15 13 29 15 13 2 26 8
27 13 2 6 10 10 17 10 8 0 26 5 42 12 15 6 31 12 36 13 4 2 10 4 15 5 4 1 10
2 15 1 4 0 7 3 7 9 0 5 6 7 14 4 8 -3 17 0 21 5 3 6 11 9 16 6 5 -4 9 0 9 7 0
9 3 9 10 -2 8 -12 10 -12 10 -1 0 8 3 11 7 8 3 -4 12 1 20 11 12 16 13 15 6
-3 -6 -19 -5 -19 13 -4 10 9 27 15 37 14 9 -2 17 1 17 6 0 6 5 7 10 4 6 -3 10
-2 10 3 0 5 13 8 30 7 17 -1 27 2 23 8 -4 6 0 8 10 4 9 -3 19 -2 23 4 4 6 11
6 20 -2 11 -9 14 -9 14 1 0 8 3 10 7 7 3 -4 13 -1 21 6 13 10 14 9 7 -3 -6
-12 -5 -13 6 -2 7 6 21 12 31 12 10 0 18 5 18 10 0 6 5 10 11 10 5 0 7 -4 4
-10 -7 -11 8 -14 19 -3 4 4 30 9 58 11 29 1 58 8 65 14 7 6 16 8 20 5 3 -4 14
-2 24 4 14 7 19 6 19 -3 0 -9 3 -9 10 2 6 10 10 11 10 3 0 -7 5 -13 11 -13 5
0 7 5 4 10 -3 6 -1 10 4 10 6 0 11 -6 11 -12 0 -9 3 -8 10 2 5 8 12 11 16 7 4
-4 13 -2 20 4 8 7 14 7 19 -1 3 -5 11 -10 16 -10 6 0 8 3 6 8 -3 4 6 7 19 7
13 0 24 -4 24 -8 0 -4 9 -3 20 3 15 8 20 8 20 -2 0 -9 3 -9 10 2 7 11 10 11
10 2 0 -9 5 -10 17 -3 10 5 26 5 40 0 14 -5 23 -5 23 1 0 6 9 6 24 0 17 -6 26
-5 30 3 3 9 5 9 5 -1 1 -10 6 -10 21 -2 11 6 20 7 20 2 0 -5 7 -9 15 -9 8 0
12 4 9 9 -3 4 0 8 5 8 6 0 11 -4 11 -8 0 -11 40 -9 59 2 10 7 12 6 6 -4 -6
-10 -3 -12 13 -8 12 4 22 1 22 -4 0 -7 5 -6 14 1 11 9 15 9 19 -1 3 -8 6 -9 6
-2 1 8 12 9 34 5 18 -5 40 -7 50 -5 9 1 17 -2 17 -7 0 -11 23 -7 32 6 5 6 8 5
8 -3 0 -7 4 -11 8 -8 5 3 21 -1 36 -9 14 -8 24 -10 21 -5 -7 11 18 14 28 3 4
-3 19 -8 34 -10 45 -7 68 -11 68 -13 0 -1 11 -4 25 -6 13 -2 27 -9 31 -15 4
-7 9 -4 13 6 5 14 9 15 21 5 8 -7 15 -9 15 -4 0 4 7 -1 16 -12 8 -10 13 -13 9
-6 -9 17 6 15 34 -5 18 -12 22 -13 16 -2 -6 10 -3 9 11 -2 10 -9 25 -14 32
-12 7 3 19 0 27 -7 8 -6 19 -9 25 -5 5 3 10 2 10 -4 0 -6 7 -7 17 -4 12 5 14
3 8 -8 -7 -12 -6 -12 7 -1 13 10 17 10 21 -2 4 -9 15 -13 27 -11 11 2 20 -1
20 -6 0 -6 4 -8 9 -5 4 3 17 -1 27 -9 10 -8 29 -15 42 -15 12 0 22 -5 22 -11
0 -5 4 -8 9 -4 5 3 17 -2 25 -11 9 -9 16 -11 16 -4 0 7 7 5 16 -4 8 -9 20 -14
25 -11 5 4 9 1 9 -5 0 -7 7 -9 16 -6 8 3 13 2 10 -3 -3 -5 1 -12 10 -15 10 -4
13 -2 9 7 -4 6 0 4 8 -6 15 -18 15 -18 20 0 4 16 5 16 6 1 1 -11 9 -18 21 -18
11 0 20 -5 20 -11 0 -5 5 -7 10 -4 6 3 10 -1 10 -11 0 -13 3 -14 15 -4 12 10
16 9 21 -4 3 -9 13 -16 21 -16 8 0 22 -9 32 -21 16 -20 18 -20 31 -4 12 15 12
18 -3 26 -9 6 -18 8 -20 7 -2 -2 -11 5 -21 15 -10 9 -24 17 -33 17 -9 0 -22 8
-30 18 -10 11 -12 12 -8 2 5 -12 4 -12 -7 1 -12 15 -61 36 -64 28 -1 -2 -12 5
-25 16 -12 11 -19 14 -15 8 4 -7 2 -13 -3 -13 -6 0 -11 6 -11 14 0 8 -8 13
-17 12 -10 -2 -24 3 -31 11 -8 7 -18 11 -23 8 -5 -4 -9 0 -9 7 0 9 -3 9 -10
-2 -7 -11 -10 -11 -10 -2 0 7 -4 10 -10 7 -5 -3 -10 2 -10 12 0 15 -2 16 -10
3 -5 -8 -10 -10 -10 -5 0 6 -11 15 -25 22 -14 6 -23 7 -19 2 9 -16 -8 -10 -25
9 -15 16 -32 22 -71 24 -8 0 -21 6 -29 12 -12 9 -13 8 -6 -4 6 -11 3 -10 -12
3 -11 9 -23 14 -26 10 -4 -3 -7 -2 -7 4 0 6 -14 9 -31 7 -21 -3 -28 0 -23 8 5
7 2 9 -8 5 -9 -3 -21 0 -28 6 -10 9 -11 9 -5 -3 6 -12 5 -13 -6 -2 -7 6 -23
12 -36 12 -13 0 -23 5 -23 12 0 9 -3 9 -11 1 -8 -8 -18 -7 -36 2 -14 8 -32 11
-39 8 -8 -3 -14 1 -14 8 0 11 -3 11 -10 -1 -6 -10 -10 -11 -10 -2 0 6 -7 12
-16 12 -8 0 -12 -4 -9 -10 3 -5 1 -10 -4 -10 -6 0 -11 6 -11 13 0 9 -11 13
-30 12 -16 -1 -30 1 -30 5 0 3 -17 7 -37 8 -21 2 -39 5 -42 7 -2 3 -10 0 -18
-7 -11 -9 -13 -8 -11 2 4 17 -22 20 -41 6 -11 -8 -13 -8 -8 1 9 14 -32 14 -51
0 -7 -6 -12 -6 -11 -1 4 21 -2 28 -11 14 -7 -11 -10 -11 -10 -2 0 7 -5 10 -10
7 -6 -4 -18 -1 -27 7 -11 8 -14 9 -10 1 6 -9 -1 -11 -24 -8 -17 2 -34 6 -36 9
-3 3 -15 1 -26 -5 -14 -8 -18 -8 -12 1 5 8 1 11 -11 9 -11 -2 -25 0 -33 5 -10
6 -12 5 -7 -2 10 -16 -7 -15 -23 1 -11 10 -13 10 -7 0 4 -7 3 -13 -1 -13 -5 0
-15 6 -22 13 -10 8 -12 8 -7 0z m1463 -398 c0 -8 -4 -12 -9 -9 -4 3 -8 9 -8
15 0 5 4 9 8 9 5 0 9 -7 9 -15z m-3710 -4687 c-3 -8 -6 -5 -6 6 -1 11 2 17 5
13 3 -3 4 -12 1 -19z m3949 -500 c4 -7 3 -8 -4 -4 -7 4 -12 2 -12 -5 0 -7 -3
-10 -6 -6 -6 5 3 27 11 27 2 0 7 -5 11 -12z"/>
<path d="M5357 6623 c-11 -10 -8 -25 3 -18 6 3 10 2 10 -4 0 -6 11 -13 24 -17
18 -4 23 -11 18 -22 -5 -14 -3 -15 9 -5 11 9 18 8 31 -1 10 -7 14 -17 10 -22
-4 -4 1 -2 11 5 12 10 17 10 17 2 0 -7 5 -9 12 -5 8 5 9 2 5 -10 -4 -10 -3
-15 3 -11 6 3 13 -1 16 -9 3 -9 10 -14 14 -11 5 3 13 -3 19 -12 8 -14 11 -15
11 -3 0 9 6 5 15 -10 9 -16 15 -19 15 -10 1 9 5 6 10 -7 5 -13 16 -23 25 -23
8 0 15 -4 15 -8 0 -5 12 -14 26 -20 15 -7 22 -17 18 -24 -4 -6 -3 -8 4 -4 6 3
13 2 17 -4 4 -6 11 -8 16 -5 5 3 6 -2 2 -11 -4 -10 -2 -15 3 -11 6 3 23 -5 38
-18 16 -14 33 -22 39 -18 6 3 7 1 3 -5 -4 -7 -2 -12 3 -12 6 0 11 -7 11 -16 0
-8 4 -13 9 -9 5 3 12 -4 16 -15 4 -11 15 -20 26 -20 11 0 17 -4 14 -10 -3 -5
-3 -10 2 -10 14 0 63 -47 56 -54 -3 -3 1 -6 11 -6 9 0 14 -4 11 -10 -3 -5 1
-10 10 -10 9 0 13 -4 10 -10 -3 -5 1 -10 10 -10 11 0 15 -5 11 -16 -3 -8 -2
-12 4 -9 6 3 10 1 10 -5 0 -6 5 -8 10 -5 6 3 10 1 10 -5 0 -6 14 -24 30 -40
17 -16 30 -34 30 -40 0 -6 5 -8 10 -5 6 3 13 -1 17 -11 3 -9 21 -31 40 -50 18
-18 33 -38 33 -44 0 -5 7 -10 16 -10 8 0 12 -4 9 -10 -3 -5 1 -10 9 -10 10 0
13 -6 9 -17 -4 -11 -3 -14 5 -9 11 7 17 -6 13 -27 -1 -5 2 -7 6 -4 5 2 16 -4
26 -15 9 -10 14 -18 10 -18 -3 0 2 -9 12 -20 10 -11 14 -20 9 -20 -5 -1 2 -7
16 -15 14 -7 24 -16 23 -19 -6 -13 -2 -23 15 -42 9 -10 26 -36 37 -56 11 -21
24 -38 28 -38 5 0 6 -7 3 -16 -3 -8 -2 -12 4 -9 10 6 15 -9 10 -30 -1 -5 1 -7
5 -3 10 10 33 -15 28 -29 -3 -7 1 -13 8 -13 7 0 10 -3 6 -6 -3 -4 1 -13 9 -21
8 -8 12 -19 9 -24 -4 -5 -3 -9 2 -9 4 0 17 -13 28 -28 15 -22 16 -24 2 -13
-15 12 -17 12 -11 -3 3 -9 13 -16 21 -16 8 0 11 -5 8 -10 -4 -6 -1 -17 5 -25
7 -8 9 -15 6 -15 -4 0 0 -7 8 -16 9 -8 14 -20 11 -25 -4 -5 -1 -9 4 -9 6 0 11
-6 11 -13 0 -19 24 -67 33 -67 5 0 5 -5 2 -10 -4 -6 0 -22 9 -35 9 -13 16 -31
16 -40 0 -8 4 -15 9 -15 6 0 8 -9 6 -20 -2 -11 3 -24 13 -30 14 -8 14 -9 2
-10 -13 0 -13 -1 0 -10 8 -5 11 -10 6 -10 -5 0 -1 -10 10 -22 10 -12 13 -18 6
-14 -10 6 -9 0 3 -23 9 -17 13 -36 10 -41 -3 -6 -2 -10 3 -10 6 0 13 -7 16
-16 4 -10 2 -13 -7 -8 -9 6 -9 5 0 -7 11 -13 19 -42 22 -72 1 -5 7 -5 14 -1 9
6 9 4 -1 -8 -8 -11 -9 -17 -2 -20 6 -2 11 -20 12 -41 1 -20 5 -37 9 -37 4 0 6
-9 4 -20 -2 -11 1 -20 6 -20 6 0 6 -8 -1 -20 -9 -17 -8 -20 7 -20 15 0 16 -2
3 -10 -10 -6 -11 -10 -2 -10 6 0 11 -3 11 -7 -4 -26 2 -93 9 -90 4 3 8 -18 10
-46 1 -27 7 -56 13 -63 7 -8 7 -14 -1 -19 -8 -5 -8 -10 0 -20 8 -10 7 -14 -2
-18 -10 -4 -10 -6 1 -6 11 -1 11 -4 1 -16 -9 -10 -9 -15 -1 -15 13 0 10 -22
-4 -32 -6 -5 -5 -8 2 -8 7 0 13 -10 13 -22 2 -77 4 -98 13 -98 5 0 5 -6 -2
-13 -6 -8 -8 -16 -5 -20 10 -10 12 -57 2 -63 -5 -3 -4 -11 2 -19 8 -9 8 -15 0
-20 -6 -3 -7 -12 -3 -18 10 -16 10 -38 0 -59 -4 -10 -4 -18 1 -18 5 0 9 -7 9
-15 0 -8 -4 -15 -8 -15 -9 0 -6 -20 5 -39 6 -10 5 -12 -2 -7 -8 5 -12 -5 -13
-31 -1 -21 -1 -41 0 -45 0 -5 -5 -8 -11 -8 -9 0 -9 -3 1 -9 12 -8 12 -12 2
-25 -10 -11 -10 -16 -2 -16 8 0 9 -5 2 -18 -7 -13 -6 -23 1 -30 9 -9 9 -12 1
-12 -7 0 -10 -9 -8 -20 2 -11 -1 -20 -8 -20 -8 0 -8 -3 0 -11 12 -12 6 -49 -8
-49 -5 0 -9 -5 -9 -11 0 -5 5 -7 12 -3 7 5 8 3 2 -7 -8 -13 -12 -31 -17 -74
-1 -11 -6 -23 -12 -27 -6 -5 -4 -8 5 -8 11 0 12 -3 3 -8 -6 -4 -14 -20 -17
-35 -2 -14 -7 -31 -10 -36 -4 -5 0 -12 6 -14 10 -4 10 -6 0 -6 -7 -1 -10 -5
-7 -11 3 -5 0 -10 -7 -10 -9 0 -9 -3 2 -10 11 -7 11 -10 2 -10 -7 0 -10 -5 -6
-11 3 -6 1 -15 -5 -19 -7 -4 -13 -17 -14 -28 -1 -12 -6 -22 -12 -22 -5 0 -3
-5 5 -10 11 -7 11 -10 2 -10 -7 0 -10 -4 -7 -10 3 -6 0 -10 -7 -10 -9 0 -9 -3
2 -10 13 -8 8 -14 -11 -12 -3 1 -5 -10 -3 -23 1 -14 -3 -25 -9 -25 -5 0 -7 -3
-4 -7 4 -3 2 -12 -4 -19 -6 -8 -9 -20 -6 -28 3 -8 1 -16 -4 -18 -6 -2 -12 -12
-14 -23 -2 -11 -4 -20 -5 -20 -2 0 -11 -38 -12 -52 -1 -7 -5 -13 -10 -13 -5 0
-6 -10 -3 -21 5 -16 4 -19 -6 -14 -9 6 -11 2 -7 -13 4 -12 3 -20 -2 -17 -4 3
-13 -2 -19 -9 -9 -10 -9 -16 -1 -21 8 -5 5 -12 -7 -22 -11 -9 -12 -12 -3 -8
12 5 12 4 -1 -7 -9 -7 -15 -21 -13 -30 1 -11 -3 -15 -14 -11 -9 4 -13 2 -9 -5
9 -13 -13 -63 -24 -56 -5 3 -6 -1 -3 -9 3 -8 -2 -17 -12 -21 -14 -5 -14 -9 -3
-23 8 -10 9 -14 2 -10 -7 4 -14 -1 -18 -13 -3 -11 -11 -20 -16 -20 -5 0 -8 -3
-7 -7 4 -17 -14 -53 -24 -47 -7 5 -9 0 -6 -14 4 -13 2 -20 -6 -19 -6 1 -10 -6
-10 -15 1 -10 -2 -18 -7 -18 -5 0 -9 -5 -9 -11 0 -7 -12 -23 -27 -37 -16 -13
-21 -21 -13 -17 9 5 7 -1 -5 -13 -31 -33 -45 -51 -46 -59 -1 -5 -5 -7 -11 -5
-5 1 -7 -2 -4 -7 3 -5 -1 -14 -9 -21 -8 -7 -13 -16 -10 -20 3 -4 -2 -10 -10
-14 -8 -3 -15 -12 -15 -21 0 -8 -4 -15 -10 -15 -5 0 -10 -7 -10 -16 0 -10 -6
-14 -14 -11 -10 4 -13 1 -10 -7 3 -7 -2 -16 -10 -19 -9 -4 -16 -14 -16 -22 0
-10 -5 -13 -12 -9 -8 5 -9 2 -5 -10 4 -9 3 -15 -1 -13 -9 6 -33 -19 -26 -26 3
-3 -4 -8 -15 -12 -12 -3 -21 -11 -21 -16 0 -15 -157 -169 -164 -162 -4 4 -4
-1 0 -11 5 -14 4 -17 -4 -12 -7 4 -12 2 -12 -4 0 -6 -5 -8 -10 -5 -6 4 -10 3
-9 -2 4 -23 -2 -35 -16 -29 -8 3 -14 0 -12 -7 1 -7 -3 -11 -10 -10 -7 2 -10
-4 -6 -13 3 -9 0 -14 -8 -12 -8 2 -13 -3 -11 -10 1 -8 -2 -11 -7 -8 -5 4 -14
-2 -20 -11 -6 -10 -11 -14 -11 -10 0 5 -7 1 -16 -7 -8 -9 -20 -13 -26 -10 -6
4 -8 2 -4 -4 3 -6 0 -17 -8 -25 -8 -8 -12 -18 -8 -22 4 -4 -3 -3 -15 4 -16 8
-23 8 -26 -2 -3 -6 -6 1 -6 16 -1 17 -5 26 -11 22 -13 -8 -8 18 5 27 6 4 1 8
-10 8 -17 0 -17 2 -5 10 12 8 12 10 1 10 -8 0 -12 3 -8 6 9 10 -36 55 -51 49
-7 -2 -10 0 -7 5 3 6 -2 11 -12 11 -10 1 -28 3 -40 4 -13 1 -23 -1 -23 -6 0
-5 -7 -6 -15 -3 -8 4 -15 1 -15 -6 0 -7 -7 -10 -15 -6 -9 3 -15 0 -15 -9 0 -8
-8 -18 -17 -24 -10 -5 -17 -12 -15 -15 1 -3 2 -7 1 -8 -6 -16 -4 -88 2 -88 5
0 8 -3 8 -7 -3 -20 2 -34 11 -28 6 3 10 -1 10 -9 0 -9 7 -16 15 -16 8 0 15 -5
15 -11 0 -5 5 -7 10 -4 6 3 13 0 16 -8 5 -15 34 -19 34 -5 0 4 9 -1 21 -13 13
-13 24 -17 32 -11 7 5 22 8 34 7 18 -1 20 1 11 12 -8 11 -7 12 6 7 9 -3 16 -1
16 6 0 6 5 8 11 5 6 -4 13 2 16 13 3 13 11 18 19 15 8 -3 17 2 20 11 3 9 12
16 19 16 8 0 22 11 32 23 10 13 26 23 35 21 11 -1 15 3 11 14 -4 10 -2 13 5 8
7 -4 12 -2 12 4 0 5 13 18 30 29 16 10 27 20 24 23 -3 3 6 15 20 26 15 11 26
25 26 32 0 6 3 9 8 7 7 -3 56 42 57 53 0 3 2 4 5 3 3 0 11 5 18 13 7 8 10 14
6 14 -4 0 5 9 20 21 14 11 24 24 21 29 -3 5 0 12 6 16 8 4 9 3 5 -4 -4 -7 -2
-12 3 -12 6 0 11 7 11 15 0 8 5 15 11 15 5 0 7 5 4 10 -3 5 1 10 10 10 11 0
15 5 11 15 -3 8 -2 14 2 14 17 -3 35 2 29 7 -8 9 16 33 27 27 5 -3 6 0 4 8 -3
8 5 24 18 35 12 12 20 25 17 28 -3 3 2 8 11 12 9 3 13 10 10 15 -3 5 1 12 10
15 8 3 12 12 9 20 -4 10 0 12 13 7 17 -6 17 -5 5 10 -12 15 -12 17 4 11 13 -5
16 -4 11 4 -4 7 -2 12 3 12 6 0 10 4 8 9 -1 5 6 16 16 23 10 7 19 24 20 36 1
14 6 21 15 17 7 -2 11 -1 7 4 -3 5 3 17 12 27 17 17 34 42 49 74 4 8 15 21 23
28 9 8 10 10 3 7 -11 -6 -11 -3 0 16 7 13 20 29 28 36 8 7 11 13 6 13 -6 0 -1
7 10 16 10 8 12 12 4 8 -10 -5 -8 1 5 16 13 15 15 21 5 16 -9 -5 -8 -2 2 7 10
8 15 17 11 20 -3 4 -1 7 5 7 7 0 12 7 12 15 0 8 5 15 11 15 5 0 8 4 4 9 -3 5
-1 12 5 16 5 3 10 15 10 26 0 10 5 19 12 19 6 0 8 3 5 7 -4 3 -2 12 4 20 6 7
8 13 3 13 -5 0 -3 4 4 9 7 4 14 18 15 29 1 12 5 22 10 22 4 0 5 5 2 10 -3 6
-1 10 4 10 6 0 11 9 11 19 0 11 7 26 15 34 11 12 12 17 2 20 -9 4 -8 6 2 6 11
1 11 4 0 18 -10 11 -10 14 -1 9 7 -4 12 -2 12 4 0 6 5 8 13 4 9 -6 9 -4 -1 8
-10 13 -10 17 3 21 8 4 12 13 9 22 -3 8 -2 15 4 15 6 0 9 8 8 17 -2 9 3 28 11
42 7 15 13 36 13 49 0 12 5 22 11 22 5 0 7 5 4 10 -3 6 0 10 7 10 10 0 10 2
-1 9 -8 5 -9 11 -3 15 6 3 9 14 7 24 -1 9 2 23 8 30 5 6 6 12 2 12 -4 0 -3 6
2 13 6 6 9 22 8 35 -1 12 2 22 7 22 5 0 7 4 4 9 -4 5 -2 21 3 34 7 18 7 27 -2
31 -7 2 -5 5 5 5 11 1 15 7 10 23 -3 12 -1 19 5 15 5 -3 10 0 10 8 0 8 -4 15
-9 15 -5 0 -6 6 -1 13 8 13 12 30 15 62 1 11 7 23 13 27 6 5 5 8 -4 8 -11 0
-11 3 -1 15 7 8 8 15 3 15 -5 0 -10 7 -10 15 0 8 4 12 9 9 4 -3 8 5 9 18 2 45
8 123 12 151 3 15 0 27 -7 27 -7 0 -7 3 -1 8 12 9 18 65 5 57 -4 -3 -6 4 -3
15 3 11 9 18 13 15 4 -3 5 10 1 28 -3 17 -6 83 -6 144 0 69 -4 113 -10 113 -5
0 -3 5 5 10 8 5 11 10 5 10 -5 0 -11 30 -12 66 -1 36 -8 73 -15 82 -11 13 -11
15 2 7 12 -6 12 -5 3 5 -6 7 -9 19 -6 26 3 8 -1 22 -8 31 -12 14 -12 16 1 8
11 -7 10 -2 -4 19 -10 16 -13 25 -7 22 6 -4 11 -2 11 3 0 6 -4 11 -8 11 -4 0
-8 8 -9 18 -2 44 -8 72 -15 72 -6 0 -7 7 -8 68 0 12 -4 22 -8 22 -7 0 -11 20
-13 73 0 11 -5 15 -12 10 -7 -4 -6 0 2 10 9 11 10 17 2 17 -6 0 -11 9 -11 20
0 11 -4 20 -8 20 -4 0 -8 8 -9 18 -3 43 -8 62 -15 62 -4 0 -8 11 -8 25 0 14
-4 25 -10 25 -5 0 -10 9 -10 21 0 13 -4 18 -12 13 -9 -5 -9 -2 1 9 9 12 10 17
2 17 -7 0 -9 5 -6 10 3 6 1 10 -5 10 -6 0 -8 5 -5 10 3 6 0 10 -7 10 -11 0
-10 2 0 9 11 7 11 9 -2 14 -9 4 -13 13 -10 22 3 8 2 15 -3 15 -5 0 -15 21 -23
48 -7 26 -20 53 -27 61 -8 7 -12 19 -9 26 3 8 -2 16 -11 19 -8 4 -13 13 -9 21
3 8 1 15 -4 15 -6 0 -10 7 -10 16 0 8 -4 13 -9 10 -5 -3 -9 0 -8 7 1 32 -4 48
-13 42 -5 -3 -10 0 -10 7 0 20 -24 68 -33 68 -5 0 -5 5 -2 10 3 6 1 10 -6 10
-7 0 -9 3 -6 6 4 4 -1 14 -11 23 -9 9 -18 23 -20 31 -2 8 -8 17 -13 18 -5 2
-9 12 -9 23 0 11 -7 19 -16 19 -9 0 -12 5 -8 11 4 7 -4 20 -17 31 -13 11 -18
17 -11 13 6 -3 12 -1 12 4 0 6 -4 11 -9 11 -4 0 -21 20 -37 45 -15 25 -32 45
-37 45 -4 0 -6 4 -3 9 3 4 -3 16 -14 26 -11 10 -20 24 -20 32 0 8 -4 11 -10 8
-5 -3 -10 0 -10 9 0 8 -13 28 -30 44 -16 17 -30 35 -30 41 0 6 -7 11 -16 11
-10 0 -14 5 -10 16 3 8 2 13 -2 11 -4 -2 -17 6 -30 19 -12 13 -20 24 -17 24 3
0 -23 29 -59 65 -35 36 -69 65 -76 65 -6 0 -8 5 -5 10 3 6 1 10 -5 10 -6 0 -8
5 -5 10 4 6 3 10 -2 9 -4 -1 -15 -1 -23 0 -13 1 -13 2 0 11 12 8 10 10 -8 10
-15 0 -21 4 -16 12 5 8 2 9 -9 5 -9 -3 -16 -3 -14 2 1 4 -12 22 -30 38 -18 17
-29 34 -25 38 4 5 2 5 -5 1 -7 -4 -26 8 -45 27 -35 35 -39 37 -65 37 -13 0
-15 3 -5 8 9 6 6 12 -12 22 -14 7 -23 17 -20 22 3 5 2 8 -3 7 -19 -3 -46 1
-40 7 8 8 -16 33 -25 27 -5 -2 -8 1 -8 7 0 7 -7 9 -17 6 -10 -4 -14 -4 -11 0
9 9 -18 35 -40 39 -9 1 -16 7 -15 13 2 6 -6 9 -17 7 -13 -3 -20 2 -21 13 0 14
-2 13 -9 -3 -8 -19 -9 -19 -9 3 -1 13 -7 22 -16 22 -8 0 -15 5 -15 11 0 5 -4
8 -9 4 -5 -3 -12 -1 -16 5 -4 6 -11 8 -16 5 -5 -4 -9 1 -9 10 0 12 -6 15 -19
10 -11 -3 -23 0 -27 6 -5 8 -2 10 7 5 8 -4 5 0 -5 8 -21 17 -38 20 -49 9z"/>
<path d="M5171 6521 c-1 -8 -8 -11 -21 -8 -11 3 -20 1 -20 -5 0 -5 -4 -7 -8
-4 -5 3 -18 -4 -30 -14 -12 -11 -26 -20 -32 -20 -6 0 -8 -4 -5 -10 3 -5 -1
-10 -9 -10 -9 0 -13 -7 -11 -19 2 -11 -3 -22 -11 -25 -12 -5 -13 -10 -3 -27 9
-17 8 -20 -2 -14 -9 6 -11 3 -6 -8 3 -9 1 -19 -5 -23 -7 -5 -5 -12 7 -21 14
-9 15 -13 4 -13 -12 0 -12 -2 1 -10 13 -9 13 -10 0 -10 -12 -1 -11 -3 3 -11 9
-5 17 -17 17 -24 0 -8 5 -15 11 -15 5 0 8 -3 6 -7 -6 -10 19 -34 27 -26 3 4 6
1 6 -6 0 -8 7 -11 15 -7 8 3 15 1 15 -5 0 -6 7 -9 15 -5 8 3 15 1 15 -4 0 -5
7 -7 15 -4 8 4 15 2 15 -3 0 -5 9 -9 19 -9 11 0 17 4 15 8 -3 4 6 8 20 8 13 0
27 6 29 13 4 9 6 9 6 -1 1 -9 5 -10 14 -2 48 41 65 59 60 64 -4 3 -2 6 4 6 6
0 14 7 17 16 4 10 2 13 -7 8 -9 -6 -9 -5 0 8 7 8 10 18 6 21 -3 4 -2 7 4 7 6
0 9 14 7 33 -7 62 -20 95 -46 118 -10 9 -18 22 -18 29 0 7 -3 10 -7 7 -3 -4
-16 -1 -27 7 -12 7 -31 11 -44 10 -15 -3 -21 0 -16 7 5 8 1 8 -14 0 -15 -8
-22 -8 -25 2 -4 9 -6 8 -6 -2z"/>
<path d="M2621 6283 c-1 -7 -8 -10 -16 -7 -8 4 -15 1 -15 -6 0 -6 -5 -8 -10
-5 -6 3 -13 -1 -16 -9 -3 -9 -10 -13 -15 -10 -5 3 -9 -2 -9 -10 0 -9 -4 -16
-9 -16 -5 0 -8 -13 -7 -29 1 -17 -2 -28 -6 -25 -4 3 -8 0 -8 -5 0 -6 5 -11 10
-11 6 0 10 -7 10 -16 0 -18 11 -30 59 -64 19 -13 31 -18 27 -11 -6 9 -1 12 20
9 19 -2 35 4 47 16 9 10 17 15 17 10 0 -5 8 3 18 18 23 36 21 92 -5 122 -12
13 -18 28 -15 32 4 4 1 4 -6 0 -8 -5 -22 0 -34 11 -12 10 -18 12 -14 6 4 -7 3
-13 -3 -13 -5 0 -12 6 -14 13 -4 9 -6 9 -6 0z"/>
<path d="M3933 6265 c-18 -8 -33 -11 -33 -8 0 3 -8 -1 -17 -8 -9 -8 -14 -9
-10 -3 3 6 -13 1 -37 -10 -24 -12 -42 -24 -40 -28 3 -4 -6 -10 -18 -14 -13 -4
-34 -19 -47 -33 -14 -14 -26 -25 -28 -23 -10 8 -21 0 -17 -13 4 -9 1 -15 -7
-15 -14 0 -69 -59 -69 -73 0 -5 -4 -5 -10 -2 -6 4 -7 -1 -3 -11 4 -12 3 -15
-5 -10 -8 5 -12 0 -12 -14 0 -12 -4 -18 -10 -15 -5 3 -10 -1 -10 -10 0 -8 -7
-18 -15 -21 -8 -4 -15 -10 -15 -16 0 -5 6 -6 13 -2 6 4 2 -4 -11 -18 -12 -13
-19 -28 -15 -31 3 -4 1 -7 -5 -7 -6 0 -14 -9 -17 -20 -4 -11 -10 -18 -15 -15
-4 3 -7 -3 -6 -12 2 -10 -3 -24 -11 -31 -7 -7 -13 -22 -13 -33 0 -10 -3 -19
-7 -19 -11 0 -33 -51 -27 -61 3 -5 0 -9 -6 -9 -6 0 -8 -5 -5 -10 3 -6 -2 -22
-13 -38 -11 -15 -17 -33 -15 -39 3 -7 0 -13 -7 -13 -6 0 -8 -4 -5 -10 3 -5 2
-10 -2 -10 -5 0 -9 -8 -10 -18 -2 -25 -7 -46 -13 -52 -3 -3 -11 -16 -18 -29
-12 -20 -12 -25 0 -32 10 -7 10 -9 1 -9 -7 0 -13 -11 -13 -25 0 -14 -4 -25
-10 -25 -5 0 -7 -7 -4 -15 4 -8 1 -15 -6 -15 -6 0 -8 -5 -4 -12 5 -7 2 -9 -9
-5 -9 3 -18 1 -21 -6 -2 -7 -5 -5 -5 5 -1 11 -8 15 -26 13 -14 -1 -25 1 -25 6
0 5 -7 6 -15 3 -8 -4 -15 -2 -15 4 0 6 -9 8 -20 5 -11 -3 -20 -1 -20 4 0 5
-14 10 -32 11 -17 2 -37 7 -44 13 -8 7 -14 7 -19 -1 -5 -8 -10 -8 -20 0 -9 7
-15 8 -19 1 -4 -6 -20 -3 -41 9 -21 12 -37 15 -40 9 -4 -5 -12 -6 -18 -2 -19
11 -47 11 -47 -1 0 -8 -2 -8 -8 0 -4 6 -44 10 -99 10 -56 -1 -93 3 -93 9 0 7
-3 7 -8 0 -4 -5 -31 -10 -59 -10 -29 0 -53 -4 -53 -9 0 -4 -7 -3 -15 4 -9 8
-15 9 -15 2 0 -6 -9 -9 -20 -7 -11 2 -20 0 -20 -4 0 -5 -11 -7 -25 -6 -14 2
-28 -1 -31 -7 -4 -6 -10 -5 -15 3 -7 11 -9 10 -9 -3 0 -11 -5 -15 -15 -12 -8
4 -15 2 -15 -3 0 -5 -10 -10 -22 -10 -29 -3 -68 -23 -90 -46 -12 -13 -17 -15
-21 -5 -4 9 -6 7 -6 -4 -1 -9 -10 -20 -21 -23 -11 -4 -18 -11 -15 -16 4 -5 -1
-9 -10 -9 -9 0 -13 -4 -10 -10 3 -5 1 -10 -5 -10 -6 0 -15 -11 -22 -25 -6 -13
-15 -22 -20 -19 -5 3 -7 2 -6 -3 3 -13 -13 -53 -22 -53 -5 0 -7 -9 -5 -20 2
-11 -2 -20 -8 -20 -7 0 -6 -4 3 -10 12 -8 12 -10 1 -10 -11 0 -11 -3 0 -17 8
-9 9 -14 3 -10 -7 4 -14 0 -18 -8 -3 -8 -1 -15 5 -15 6 0 5 -8 -2 -21 -6 -12
-7 -24 -3 -28 11 -8 13 -52 2 -45 -4 3 -8 0 -8 -5 0 -6 5 -11 10 -11 6 0 10
-16 8 -36 -1 -19 3 -38 9 -42 8 -5 -1 -16 -22 -31 -20 -13 -32 -28 -28 -35 3
-6 3 -8 -2 -4 -12 11 -35 -11 -35 -33 0 -11 -4 -19 -10 -19 -5 0 -10 -9 -10
-20 0 -11 -3 -20 -7 -20 -5 0 -8 -27 -8 -60 -1 -33 3 -60 7 -60 4 0 8 -9 8
-21 0 -11 4 -17 10 -14 5 3 7 0 4 -8 -3 -8 6 -26 20 -40 14 -15 26 -31 26 -37
0 -6 5 -8 10 -5 6 3 10 1 10 -5 0 -6 5 -8 10 -5 6 3 10 2 10 -4 0 -6 11 -13
25 -17 14 -3 25 -10 25 -15 0 -6 10 -5 21 2 17 9 20 8 14 -2 -6 -9 -2 -11 13
-7 12 4 25 2 28 -3 3 -6 11 -6 17 -1 7 4 19 8 27 7 8 -1 23 3 33 7 11 6 17 5
17 -4 0 -10 2 -10 8 -1 5 8 12 8 26 -3 11 -8 16 -14 11 -14 -4 0 2 -8 13 -19
12 -10 22 -26 22 -35 0 -10 4 -14 10 -11 5 3 15 -5 22 -19 6 -14 15 -26 20
-26 5 0 6 -4 3 -10 -3 -5 -1 -10 4 -10 16 0 51 -32 45 -42 -5 -7 10 -12 28 -9
4 0 5 -5 2 -13 -5 -14 31 -56 48 -56 5 0 6 -5 2 -12 -5 -8 -2 -9 11 -4 14 5
16 4 7 -7 -7 -8 -8 -18 -4 -22 4 -5 3 -6 -3 -3 -5 3 -18 -3 -27 -14 -10 -10
-16 -18 -12 -18 3 0 -8 -12 -23 -26 -15 -15 -27 -30 -25 -35 1 -5 -5 -9 -14
-9 -8 0 -12 -4 -9 -10 3 -6 -1 -10 -9 -10 -9 0 -16 -6 -16 -14 0 -8 -4 -16 -8
-18 -14 -6 -122 -145 -122 -157 0 -7 -4 -9 -10 -6 -5 3 -10 1 -10 -5 0 -17
-26 -40 -36 -32 -5 4 -3 0 4 -9 10 -14 8 -19 -13 -33 -14 -9 -23 -21 -20 -26
4 -6 1 -10 -4 -10 -6 0 -11 -7 -11 -15 0 -9 -6 -18 -14 -21 -8 -3 -13 -11 -10
-18 2 -6 -4 -21 -14 -32 -10 -10 -17 -25 -14 -32 2 -6 -1 -12 -7 -12 -6 0 -11
-11 -11 -25 0 -14 -3 -25 -7 -25 -5 0 -13 -11 -20 -25 -6 -14 -7 -23 -2 -19 5
3 6 -2 3 -10 -3 -9 -10 -14 -14 -11 -5 3 -7 -6 -6 -20 2 -13 0 -22 -5 -20 -4
3 -7 -3 -7 -12 1 -10 -2 -36 -7 -58 -11 -60 -12 -145 -2 -145 5 0 4 -6 -2 -14
-8 -9 -8 -15 -2 -18 6 -1 12 -15 13 -30 1 -16 7 -28 12 -28 5 0 6 -3 3 -7 -4
-3 1 -12 11 -20 9 -8 11 -12 5 -8 -20 10 -15 -2 13 -32 14 -15 32 -35 40 -44
8 -9 14 -21 14 -27 0 -7 6 -12 14 -12 8 0 17 -7 20 -16 4 -9 9 -14 12 -11 4 3
15 -2 25 -12 11 -10 39 -24 62 -32 23 -7 45 -18 49 -23 4 -6 19 -11 35 -12 15
-1 30 -3 33 -4 9 -4 24 -7 48 -8 15 -1 21 -6 16 -14 -5 -7 -3 -8 6 -3 17 11
60 13 60 3 0 -3 23 -6 50 -5 28 1 50 -2 51 -8 0 -5 4 -1 9 10 5 11 9 14 9 6 1
-9 10 -12 31 -9 17 3 33 1 36 -3 2 -5 11 -6 19 -3 8 4 12 11 8 18 -4 6 1 5 11
-3 12 -10 20 -11 28 -3 7 7 17 8 29 2 10 -6 20 -6 23 -1 3 4 17 7 31 6 14 -2
25 1 25 7 0 6 7 8 15 4 8 -3 26 -1 40 4 14 5 25 6 25 1 0 -4 7 -8 15 -8 8 0
11 5 8 10 -4 6 3 8 15 5 13 -4 22 -1 22 5 0 6 3 7 7 4 3 -4 13 -1 21 6 13 10
14 9 7 -2 -6 -11 -5 -12 6 -5 16 10 20 11 55 13 15 1 23 5 18 12 -4 8 0 8 15
0 14 -8 21 -8 21 -1 0 5 9 10 19 10 11 0 22 4 25 9 4 5 16 4 30 -2 16 -8 21
-14 13 -19 -8 -5 -5 -8 8 -8 17 0 17 -2 5 -10 -10 -6 -11 -10 -2 -10 6 0 12
-11 12 -25 0 -14 6 -25 13 -25 9 0 8 -3 -2 -9 -9 -6 -10 -10 -2 -12 7 -3 13
-14 14 -27 0 -12 5 -22 9 -22 4 0 8 -11 8 -25 0 -14 5 -25 11 -25 7 0 9 -9 6
-21 -3 -11 0 -22 7 -25 6 -2 13 -14 13 -26 1 -12 8 -25 15 -29 10 -7 10 -9 -2
-9 -12 -1 -11 -3 3 -11 9 -6 15 -15 11 -20 -3 -6 5 -22 17 -36 13 -15 19 -23
12 -20 -8 5 -8 1 0 -18 7 -14 15 -25 19 -25 4 0 5 -6 2 -14 -3 -7 2 -16 11
-20 10 -3 15 -12 11 -21 -3 -9 0 -15 10 -15 11 0 13 -6 9 -21 -5 -15 -4 -19 4
-15 6 4 14 -1 18 -11 3 -10 14 -30 24 -44 10 -14 16 -29 12 -32 -3 -4 2 -9 11
-13 9 -3 14 -10 11 -14 -3 -5 4 -15 16 -24 12 -8 18 -19 14 -25 -3 -6 1 -11 9
-11 9 0 16 -5 16 -11 0 -5 4 -7 10 -4 6 4 7 -1 3 -11 -4 -12 -3 -15 5 -10 7 4
12 1 12 -9 0 -9 5 -13 10 -10 6 3 10 0 10 -7 0 -13 49 -51 82 -63 10 -4 15
-12 11 -18 -3 -5 -1 -7 5 -3 6 3 13 2 17 -4 4 -6 11 -8 16 -5 5 4 9 1 9 -4 0
-6 7 -11 16 -11 8 0 22 -6 30 -14 7 -8 23 -12 34 -9 11 3 20 1 20 -5 0 -11 18
-11 36 1 7 4 17 0 24 -8 10 -12 16 -13 26 -4 8 6 14 8 14 3 0 -4 5 -3 12 4 8
8 15 9 25 1 9 -8 13 -8 13 -1 0 7 7 9 17 5 12 -5 14 -3 8 8 -6 11 -5 11 5 2
10 -9 16 -8 27 3 8 8 19 12 24 9 5 -4 9 -1 9 5 0 7 7 9 16 6 10 -4 13 -2 8 6
-5 8 -2 9 10 5 10 -4 15 -3 11 3 -3 5 8 16 25 25 16 8 30 20 30 25 0 6 7 10
15 10 8 0 15 5 15 11 0 5 4 8 9 4 5 -3 12 4 16 15 3 11 13 20 21 20 8 0 17 7
20 15 4 8 11 12 18 8 13 -8 28 -12 73 -16 18 -2 36 -6 39 -10 4 -4 12 -3 18 2
6 5 22 11 36 13 14 1 33 10 43 18 10 8 21 15 24 15 10 0 63 56 63 66 0 6 5 7
12 3 7 -4 8 -3 4 5 -4 6 -3 18 3 25 6 7 12 25 13 40 1 14 6 26 11 26 5 0 4 7
-3 15 -7 8 -8 15 -3 15 11 0 11 29 0 47 -4 6 -1 14 5 16 10 4 10 6 0 6 -7 1
-11 5 -7 10 3 5 -1 15 -8 23 -8 7 -17 26 -20 41 -4 15 -13 26 -20 24 -6 -1
-11 4 -9 11 1 8 -1 11 -5 9 -5 -3 -16 1 -26 8 -12 9 -15 15 -7 20 8 5 8 10 0
20 -8 9 -7 17 4 28 8 8 12 17 9 21 -4 3 0 6 7 6 7 0 11 3 7 6 -3 4 0 21 8 39
7 19 11 36 7 39 -3 3 0 6 7 6 7 0 10 4 6 9 -3 5 -1 12 5 16 6 4 8 11 5 16 -4
5 -1 9 5 9 6 0 8 5 5 10 -4 6 -3 16 2 23 5 7 10 23 11 35 1 25 34 58 40 41 2
-6 11 -4 20 3 12 10 14 10 8 1 -4 -8 -1 -13 8 -14 29 -3 34 -4 42 -11 4 -4 14
-2 22 5 13 9 14 9 8 0 -5 -9 2 -13 23 -13 18 0 31 -5 31 -12 0 -9 4 -8 10 2 5
8 10 10 10 4 0 -6 6 -11 13 -12 6 -1 28 -4 47 -6 19 -2 37 -5 40 -6 3 -1 13
-1 24 0 12 1 16 -3 11 -10 -6 -9 -2 -9 13 -1 15 8 22 8 25 -2 4 -9 6 -9 6 1 1
9 7 10 19 4 9 -4 24 -8 32 -7 8 1 21 -3 28 -8 8 -6 17 -5 27 3 9 8 15 9 15 2
0 -6 9 -9 20 -7 11 2 22 -1 25 -6 4 -5 11 -6 17 -3 6 4 44 7 84 7 45 0 71 4
68 9 -4 6 3 5 14 -1 12 -6 23 -7 26 -3 3 5 19 8 36 7 16 -1 30 2 30 6 0 4 11
6 25 4 14 -1 28 2 31 7 3 5 12 7 19 4 7 -2 16 2 19 11 4 8 13 13 21 9 8 -3 15
-1 15 5 0 6 4 8 9 5 10 -7 61 16 61 27 0 5 5 5 10 2 6 -3 10 -1 10 5 0 6 5 8
10 5 6 -3 10 -2 10 4 0 5 9 13 20 16 11 4 18 11 15 16 -4 5 -1 9 4 9 6 0 20 9
31 20 11 11 17 20 14 20 -3 0 4 9 17 21 13 11 17 18 9 14 -9 -4 -7 0 4 9 10 8
15 20 10 27 -5 8 -3 10 6 4 10 -6 12 -4 7 8 -3 10 -2 17 2 17 5 0 12 7 15 16
4 10 2 13 -7 8 -9 -6 -9 -5 0 7 7 9 14 24 16 35 1 10 7 25 11 33 6 10 5 12 -3
7 -15 -10 -11 25 4 36 6 5 5 8 -2 8 -7 0 -13 5 -13 11 0 5 6 7 13 3 9 -6 9 -4
-1 8 -9 12 -10 18 -2 23 8 5 7 11 -2 22 -7 9 -12 24 -10 35 2 10 -3 18 -10 18
-9 0 -9 3 2 10 10 6 11 10 3 10 -7 0 -13 11 -13 25 0 14 -5 25 -11 25 -5 0 -8
4 -4 9 3 5 1 12 -5 16 -5 3 -10 11 -10 16 0 6 6 7 12 3 7 -5 3 5 -10 20 -12
16 -19 32 -16 37 3 5 0 9 -5 9 -6 0 -11 7 -11 15 0 8 -5 15 -11 15 -6 0 -9 7
-5 15 3 8 1 15 -5 15 -5 0 -17 17 -26 38 -8 20 -19 39 -23 42 -5 3 -10 12 -12
20 -2 8 -12 23 -23 33 -12 11 -14 16 -5 12 8 -3 5 2 -7 11 -13 9 -23 22 -23
29 0 7 -7 15 -15 19 -8 3 -15 10 -15 16 0 5 -8 18 -17 28 -39 40 -62 76 -56
86 3 6 3 8 -1 4 -10 -9 -52 34 -48 49 2 8 -3 10 -13 7 -9 -4 -15 -2 -13 2 2 5
-7 20 -19 34 -13 13 -23 28 -23 32 0 5 -3 7 -7 5 -5 -3 -14 1 -21 9 -7 8 -10
14 -7 14 3 0 0 6 -7 14 -7 8 -16 12 -20 10 -3 -2 -5 4 -3 13 2 10 4 22 4 26 1
5 6 5 11 2 6 -3 10 -1 10 4 0 15 37 51 44 44 3 -4 6 1 6 9 0 9 7 19 16 22 8 3
12 10 9 16 -3 5 1 10 9 10 9 0 16 4 16 9 0 5 16 25 36 45 20 20 28 33 18 29
-16 -6 -16 -5 2 14 10 11 22 18 27 16 6 -4 11 12 8 30 0 4 4 7 10 7 6 0 17 6
25 14 11 11 11 16 1 19 -7 3 -4 6 6 6 10 1 15 6 12 11 -3 6 -1 10 4 10 6 0 11
8 11 17 0 9 3 13 7 10 7 -8 54 53 48 63 -2 3 5 12 15 20 10 8 17 17 14 21 -2
4 3 15 12 23 8 9 12 16 7 16 -4 0 -1 6 7 13 8 7 15 19 15 27 0 8 5 14 10 13 6
-1 11 6 12 15 4 46 8 59 19 55 8 -3 11 4 10 21 -2 14 1 26 6 26 5 0 7 4 3 9
-3 5 -1 12 5 16 5 3 10 15 10 26 0 10 4 19 8 19 4 0 8 12 8 28 1 39 7 66 19
74 6 5 6 8 -1 8 -8 0 -11 15 -9 40 1 25 -2 40 -9 40 -6 0 -5 4 3 9 8 6 10 14
5 22 -5 8 -7 22 -6 32 2 9 -2 17 -8 17 -6 0 -9 4 -6 9 9 14 -5 42 -17 34 -5
-3 -7 -1 -3 5 3 6 2 13 -4 17 -6 4 -8 10 -5 14 6 11 -51 71 -68 71 -8 0 -7 4
3 10 13 8 12 10 -3 10 -10 0 -20 6 -23 14 -4 12 -38 27 -53 25 -2 0 -7 3 -10
8 -10 15 -73 43 -82 37 -5 -3 -9 0 -9 5 0 6 -11 11 -25 11 -14 0 -25 4 -25 9
0 5 -14 8 -31 7 -18 -1 -34 4 -39 13 -5 9 -10 11 -10 4 0 -27 -60 7 -60 36 0
9 -7 25 -15 35 -8 10 -12 23 -9 27 3 5 -2 9 -11 9 -11 0 -15 5 -11 15 3 8 1
15 -4 15 -5 0 -20 11 -33 24 -14 14 -28 22 -31 19 -3 -4 -6 -1 -6 6 0 7 -4 10
-9 7 -5 -4 -11 -2 -13 4 -2 6 -24 11 -51 12 -26 1 -47 6 -47 11 0 5 -8 3 -17
-4 -15 -12 -16 -12 -8 1 8 13 6 13 -8 2 -9 -8 -20 -11 -26 -8 -5 4 -15 0 -23
-7 -7 -8 -21 -13 -31 -11 -9 1 -15 -2 -11 -7 3 -5 1 -9 -4 -9 -14 0 -71 -53
-74 -70 -2 -8 -10 -20 -19 -27 -9 -7 -17 -27 -18 -45 -1 -18 -3 -39 -3 -45 -2
-15 -34 -27 -48 -18 -5 3 -10 2 -10 -4 0 -6 -7 -7 -17 -4 -10 4 -14 2 -10 -4
4 -6 -3 -9 -18 -7 -14 1 -25 -2 -25 -8 0 -6 -6 -5 -15 2 -12 10 -15 10 -15 0
0 -7 -7 -10 -15 -6 -8 3 -15 0 -15 -6 0 -7 -4 -7 -13 0 -10 8 -16 6 -25 -9 -7
-11 -17 -17 -22 -14 -6 4 -7 11 -4 17 4 7 2 8 -5 4 -11 -7 -18 3 -23 39 -2 11
-6 22 -10 25 -4 3 -8 20 -10 38 -1 18 -5 32 -8 32 -4 0 -7 6 -8 13 -2 31 -10
52 -19 50 -5 -1 -10 5 -10 13 0 8 5 14 11 14 5 0 2 6 -8 13 -9 7 -18 26 -20
42 -2 16 -8 31 -14 33 -6 2 -8 10 -5 19 4 11 2 14 -5 9 -8 -5 -12 2 -12 19 0
22 -52 137 -70 155 -3 3 -6 12 -8 20 -2 8 -8 17 -13 18 -5 2 -9 8 -9 14 0 5
-7 16 -15 25 -8 8 -13 19 -10 24 4 5 1 9 -4 9 -6 0 -11 7 -11 16 0 8 -4 12
-10 9 -5 -3 -10 -1 -10 6 0 6 -8 18 -17 26 -12 9 -13 12 -3 8 8 -4 4 3 -10 14
-14 11 -21 21 -17 21 4 0 2 6 -5 14 -7 8 -16 12 -20 9 -5 -2 -8 1 -8 7 0 15
-26 41 -34 33 -3 -4 -6 1 -6 10 0 10 -7 17 -16 17 -8 0 -12 5 -9 10 3 6 0 10
-8 10 -7 0 -23 9 -35 20 -12 11 -26 20 -32 20 -6 0 -8 5 -4 12 4 7 3 8 -5 4
-6 -4 -18 -2 -26 4 -8 6 -20 8 -26 4 -7 -4 -9 -3 -5 4 3 6 2 13 -4 17 -5 3
-10 1 -10 -6 0 -8 -6 -6 -18 4 -15 13 -21 14 -32 4 -10 -9 -11 -9 -6 1 5 8 0
12 -16 13 -13 0 -33 2 -45 3 -13 2 -23 -2 -23 -7 0 -6 -5 -5 -12 1 -9 7 -23 6
-45 -3z m65 -43 c9 9 12 8 12 -2 0 -13 2 -13 10 0 6 9 10 10 10 3 0 -7 9 -10
22 -8 12 3 28 -1 36 -8 15 -12 19 -13 65 -15 16 -1 26 -6 23 -10 -2 -4 4 -14
16 -21 16 -10 19 -10 13 1 -4 7 3 2 15 -12 12 -14 18 -19 14 -11 -5 9 -3 12 4
7 7 -4 12 -11 12 -17 0 -15 42 -59 52 -53 4 3 8 -2 8 -11 0 -9 5 -13 10 -10 6
3 10 1 10 -4 0 -6 0 -13 0 -16 0 -2 14 -19 30 -36 16 -18 27 -36 24 -41 -3 -4
2 -8 11 -8 9 0 13 -4 10 -10 -3 -5 -1 -10 6 -10 7 0 10 -3 6 -6 -3 -3 3 -15
14 -27 10 -11 19 -32 20 -46 0 -14 3 -20 6 -13 4 10 9 8 20 -7 8 -12 11 -26 8
-31 -3 -6 -1 -10 5 -10 7 0 10 -7 6 -15 -3 -8 -1 -15 4 -15 6 0 10 -7 10 -15
0 -8 4 -15 8 -15 8 0 10 -6 14 -49 1 -11 5 -18 9 -15 8 4 32 -51 33 -76 0 -8
4 -18 9 -21 4 -3 9 -22 10 -41 1 -20 5 -34 10 -31 4 2 8 -1 8 -6 2 -14 6 -30
9 -33 2 -4 11 -41 12 -55 1 -7 6 -13 12 -13 6 0 4 -5 -4 -10 -8 -5 -10 -10 -4
-10 16 0 25 -27 11 -27 -7 0 -16 -2 -22 -3 -23 -6 -56 1 -50 10 3 6 -1 7 -9 4
-9 -3 -16 -1 -16 4 0 6 -9 9 -20 7 -13 -3 -20 2 -20 12 0 9 -6 13 -15 9 -8 -3
-21 1 -29 9 -7 8 -16 12 -19 9 -3 -4 -12 -2 -19 2 -7 5 -17 9 -23 10 -29 5
-41 10 -47 19 -5 6 -8 5 -8 -3 0 -9 -5 -10 -19 -3 -10 6 -21 7 -25 4 -3 -3 -6
-2 -6 3 0 5 -18 10 -40 11 -23 2 -50 8 -62 14 -16 8 -19 8 -13 -1 6 -9 2 -9
-14 -1 -12 7 -26 9 -31 6 -6 -3 -10 0 -10 7 0 9 -3 9 -10 -2 -5 -8 -10 -10
-10 -3 0 6 -9 9 -20 6 -11 -3 -26 0 -34 6 -10 9 -16 9 -21 1 -5 -8 -11 -7 -23
2 -13 11 -14 11 -8 0 10 -16 -25 -13 -36 3 -5 6 -8 5 -8 -4 0 -7 -6 -11 -15
-7 -8 3 -15 2 -15 -2 0 -4 -24 -7 -53 -6 -28 0 -57 -3 -63 -8 -7 -5 -16 -8
-20 -7 -22 4 -35 -2 -28 -13 5 -7 3 -8 -7 -3 -19 12 -49 14 -55 3 -3 -4 -16
-8 -30 -8 -14 0 -23 -4 -20 -8 2 -4 -6 -9 -20 -10 -46 -3 -54 -5 -54 -14 0 -5
-4 -6 -10 -3 -5 3 -10 2 -10 -2 0 -5 -9 -10 -20 -11 -43 -4 -50 -6 -50 -14 0
-4 -3 -7 -7 -6 -5 0 -17 -2 -28 -6 -33 -13 -50 -17 -51 -14 0 2 -7 -2 -15 -9
-20 -16 -49 1 -32 18 6 6 9 18 6 25 -3 8 0 14 5 14 6 0 9 9 7 20 -2 11 1 20 7
20 5 0 8 7 4 15 -3 8 -1 15 4 15 5 0 7 7 4 15 -4 8 -1 15 6 15 6 0 8 5 5 10
-3 6 -1 10 5 10 6 0 9 4 6 9 -8 13 4 42 15 35 5 -3 6 2 3 10 -3 8 4 33 15 56
11 24 18 47 15 51 -3 5 0 9 5 9 6 0 11 7 11 15 0 8 5 15 11 15 5 0 8 4 4 9 -3
5 -1 12 5 16 6 4 8 11 5 16 -4 5 -1 9 5 9 6 0 9 4 6 9 -3 5 1 14 9 21 7 6 11
18 8 26 -3 7 2 17 11 20 9 3 13 10 10 15 -3 5 0 9 7 9 7 0 10 3 6 6 -3 4 1 13
9 21 8 8 12 18 9 23 -3 4 2 11 10 14 9 3 20 17 25 31 5 14 14 25 20 25 6 0 8
4 5 10 -3 5 3 15 14 21 11 7 17 19 13 27 -3 10 -1 13 6 8 7 -4 12 -2 12 4 0 6
6 8 13 4 6 -4 9 -4 5 1 -10 10 11 37 23 29 5 -3 9 4 9 16 0 12 4 19 9 15 5 -3
16 3 23 12 7 10 25 24 40 32 15 8 24 19 21 24 -4 6 0 8 9 4 9 -3 26 2 39 10
17 13 20 13 14 2 -7 -11 -6 -12 7 -2 8 7 17 11 20 8 3 -3 11 1 18 10 8 10 17
12 30 5 11 -6 21 -5 28 2z m-1346 -861 c15 8 19 8 14 0 -8 -13 21 -10 43 3 9
6 12 5 8 -1 -4 -6 4 -10 18 -10 15 0 22 4 18 11 -3 6 2 3 12 -6 13 -12 24 -14
41 -7 15 5 24 5 24 -1 0 -5 7 -7 15 -4 8 4 22 1 30 -6 9 -7 15 -8 15 -2 0 5 9
8 20 5 11 -3 17 -10 13 -16 -4 -6 -1 -7 7 -2 22 14 59 12 65 -3 4 -11 8 -12
20 -2 10 9 15 9 15 1 0 -6 10 -11 23 -11 50 0 77 -4 77 -12 0 -4 13 -8 28 -8
15 0 34 -6 41 -12 11 -11 12 -10 6 0 -6 11 -3 11 14 0 25 -16 34 -35 19 -44
-7 -5 -8 -2 -3 7 4 8 -2 4 -14 -9 -12 -12 -26 -20 -32 -17 -5 4 -9 -2 -9 -11
0 -10 -3 -14 -7 -11 -3 4 -17 -5 -30 -19 -13 -14 -28 -22 -35 -18 -6 4 -8 3
-5 -3 4 -5 -5 -20 -18 -31 -14 -12 -25 -19 -25 -14 0 4 -5 -1 -11 -11 -6 -9
-15 -14 -21 -11 -7 4 -8 2 -4 -5 4 -6 0 -14 -8 -17 -9 -3 -14 -10 -11 -14 3
-5 -4 -12 -16 -15 -11 -4 -18 -12 -16 -19 3 -7 -8 -21 -23 -31 -16 -11 -33
-30 -39 -42 -6 -13 -15 -23 -21 -23 -6 0 -8 -5 -5 -10 3 -6 -1 -13 -9 -16 -9
-3 -14 -10 -11 -14 3 -5 -2 -13 -11 -18 -9 -5 -16 -13 -16 -18 -1 -19 -21 -53
-29 -48 -4 2 -6 -5 -4 -16 2 -11 -1 -20 -6 -20 -6 0 -8 -4 -5 -9 3 -5 -1 -12
-9 -15 -8 -3 -15 -9 -14 -13 3 -15 -34 -93 -44 -93 -5 0 -7 -7 -3 -15 3 -8 2
-15 -2 -15 -4 0 -12 -11 -19 -25 -6 -14 -7 -23 -3 -20 4 3 0 -17 -10 -44 -11
-27 -16 -51 -13 -55 4 -3 1 -6 -5 -6 -7 0 -12 -5 -12 -11 0 -5 6 -7 13 -4 6 4
5 1 -4 -7 -9 -7 -14 -23 -12 -36 2 -17 -1 -21 -9 -16 -9 5 -9 2 1 -9 7 -9 9
-17 4 -17 -6 0 -9 -13 -7 -30 2 -17 -1 -30 -7 -30 -6 0 -9 -6 -6 -13 3 -8 2
-20 -3 -27 -4 -7 -4 -26 1 -42 7 -26 6 -28 -7 -17 -13 10 -13 8 -5 -14 10 -27
9 -29 -21 -40 -13 -4 -15 -2 -11 10 4 11 2 14 -5 9 -8 -4 -12 -1 -12 10 0 10
-3 15 -6 11 -8 -7 -54 46 -54 63 0 6 -5 8 -12 4 -8 -5 -9 -2 -5 9 3 10 2 17
-4 17 -15 0 -39 26 -32 34 4 3 -2 6 -12 6 -10 0 -16 3 -13 6 4 3 -2 14 -13 25
-11 11 -17 24 -14 29 4 6 -2 7 -12 3 -10 -3 -15 -3 -11 2 4 4 1 14 -7 22 -11
10 -12 20 -5 32 5 10 6 22 2 26 -4 5 -1 5 6 1 9 -5 15 -1 19 13 3 12 10 21 16
21 6 0 7 3 4 7 -4 3 1 12 11 19 13 10 14 13 3 14 -11 0 -10 4 5 16 10 8 14 13
7 10 -13 -7 -6 31 10 52 6 7 6 12 1 11 -21 -4 -26 2 -14 16 9 11 9 15 1 15 -7
0 -11 8 -9 18 2 11 -3 26 -10 35 -7 8 -14 24 -15 36 0 11 -5 17 -9 15 -4 -3
-8 2 -8 10 0 9 -6 15 -12 14 -7 -2 -12 2 -11 9 2 7 -4 10 -12 7 -8 -4 -17 1
-21 10 -3 9 -10 13 -15 10 -5 -3 -9 0 -9 6 0 6 -4 8 -10 5 -5 -3 -10 -2 -10 4
0 5 -8 8 -17 7 -10 -2 -21 2 -25 8 -6 8 -11 6 -18 -4 -6 -9 -10 -10 -10 -3 0
7 -17 11 -47 10 -37 -2 -47 1 -45 12 2 8 0 21 -4 30 -11 25 -12 51 -2 57 4 3
5 11 1 17 -10 16 -11 67 -1 67 5 0 6 11 4 24 -2 13 2 36 9 50 9 16 10 26 3 26
-5 0 0 9 13 20 13 10 20 19 16 20 -14 0 74 80 88 80 8 0 21 10 29 22 9 12 16
19 16 14 0 -5 12 -1 26 9 15 9 23 12 19 5 -4 -7 4 -5 17 4 14 9 28 13 31 9 4
-3 7 -1 7 6 0 7 5 9 10 6 6 -3 10 0 10 7 0 10 2 10 9 -1 7 -11 11 -10 20 5 9
16 12 17 21 4 5 -9 10 -10 10 -3 0 6 11 10 25 8 14 -1 25 1 25 4 0 4 20 6 45
5 27 -1 45 3 46 10 0 7 2 7 6 -1 3 -10 10 -10 25 -2z m2878 -22 c0 -4 15 -6
34 -5 19 1 32 -2 30 -6 -2 -3 0 -9 6 -13 5 -3 10 0 10 7 0 10 2 10 9 -1 5 -7
14 -10 20 -7 6 4 11 2 11 -4 0 -6 5 -8 10 -5 6 3 10 3 10 -2 0 -4 11 -13 25
-20 19 -8 23 -8 19 0 -4 7 3 2 15 -10 12 -13 29 -23 37 -23 8 0 12 -4 9 -10
-3 -5 -1 -10 5 -10 18 0 42 -29 34 -42 -5 -8 -2 -9 9 -5 11 4 18 -1 23 -16 5
-12 7 -26 6 -30 -1 -5 2 -6 7 -3 12 8 19 -2 25 -37 2 -15 8 -31 11 -37 4 -6 1
-18 -6 -26 -7 -8 -8 -14 -3 -13 20 3 24 -2 15 -20 -6 -10 -7 -21 -4 -25 11
-10 12 -37 2 -31 -5 4 -6 -8 -2 -26 4 -20 2 -30 -3 -26 -6 3 -9 -7 -8 -23 1
-16 -4 -34 -11 -40 -7 -6 -11 -20 -8 -30 3 -11 1 -20 -5 -20 -6 0 -12 -12 -14
-27 -2 -16 -8 -27 -14 -26 -6 1 -10 -9 -8 -22 1 -14 -4 -28 -11 -32 -8 -5 -14
-11 -15 -15 -3 -23 -14 -37 -24 -31 -6 4 -4 -2 4 -12 9 -11 10 -16 3 -11 -8 4
-13 1 -13 -8 0 -9 -5 -16 -11 -16 -5 0 -7 -4 -4 -10 3 -5 1 -10 -6 -10 -7 0
-10 -3 -6 -6 3 -4 1 -12 -6 -20 -29 -32 -37 -44 -37 -52 0 -5 -7 -15 -15 -22
-8 -7 -12 -16 -9 -21 3 -5 -2 -6 -11 -3 -9 4 -15 3 -14 -2 4 -21 -2 -35 -11
-29 -5 3 -10 -1 -10 -9 0 -8 -6 -19 -14 -23 -8 -4 -15 -12 -16 -18 -1 -5 -6
-9 -11 -8 -5 2 -8 0 -8 -5 3 -20 -2 -32 -15 -32 -8 0 -18 -5 -22 -12 -5 -7 -3
-8 5 -3 10 5 9 2 0 -13 -7 -12 -16 -19 -20 -17 -3 3 -11 -7 -18 -21 -7 -15
-16 -22 -23 -18 -8 5 -9 2 -5 -10 6 -14 3 -17 -9 -12 -12 5 -15 2 -10 -11 4
-10 4 -14 0 -11 -4 4 -15 -4 -26 -17 -11 -14 -29 -25 -40 -25 -17 0 -19 4 -14
25 4 14 3 25 -2 25 -10 0 -8 42 3 60 5 9 4 11 -3 6 -8 -5 -12 1 -11 16 2 58
-4 118 -12 118 -5 0 -9 10 -9 23 0 52 -5 85 -12 80 -5 -2 -9 2 -9 9 -3 32 -20
78 -28 78 -4 0 -8 7 -9 15 -1 8 -3 22 -4 30 -1 8 -5 15 -10 15 -5 0 -6 5 -3
10 3 6 -1 13 -9 16 -9 3 -16 17 -16 30 0 13 -4 24 -10 24 -5 0 -10 8 -10 18 0
9 -11 30 -25 46 -13 16 -22 33 -19 37 3 5 -2 9 -11 9 -9 0 -13 5 -10 10 3 6 2
10 -4 10 -5 0 -13 9 -16 20 -3 11 -13 20 -21 20 -8 0 -13 3 -13 8 4 21 -2 43
-9 38 -5 -3 -19 6 -30 19 -12 14 -19 25 -16 25 3 0 -28 34 -69 75 -41 41 -80
75 -86 75 -6 0 -11 5 -11 10 0 6 -7 10 -15 10 -8 0 -15 7 -15 15 0 9 -8 19
-17 22 -10 4 -30 18 -45 32 l-27 26 20 25 c12 14 17 18 13 10 -6 -12 -5 -13 8
-3 8 7 18 10 21 6 4 -3 7 -2 7 3 0 5 10 10 23 10 12 1 31 4 42 7 68 18 73 18
89 2 9 -9 16 -23 16 -31 0 -8 5 -14 10 -14 6 0 10 -10 10 -22 0 -12 3 -18 6
-15 4 3 18 -6 33 -21 14 -15 33 -28 41 -30 8 -2 17 -8 18 -13 2 -5 14 -9 27
-9 13 0 27 -5 30 -10 5 -8 12 -7 23 2 12 10 16 10 19 1 3 -7 9 -13 14 -13 6 0
8 4 5 8 -2 4 3 8 12 9 51 2 82 8 82 15 0 4 6 8 13 8 8 0 22 9 32 20 10 11 22
17 28 13 6 -3 7 -1 3 5 -4 6 3 21 14 32 11 11 18 25 15 30 -3 4 0 10 5 12 6 2
12 10 14 18 7 34 18 46 41 46 14 0 25 -3 25 -7z m-2911 -1351 c-6 -10 -6 -18
-1 -18 5 0 9 -7 9 -15 0 -8 -5 -15 -11 -15 -7 0 -6 -3 1 -8 7 -4 13 -22 15
-40 1 -18 5 -32 8 -32 3 0 6 -8 6 -17 1 -10 5 -36 9 -58 4 -22 9 -52 9 -67 1
-16 5 -28 10 -28 4 0 5 -7 2 -16 -3 -8 -2 -12 4 -9 6 3 10 1 10 -5 0 -6 5 -8
13 -4 9 6 9 4 -1 -8 -10 -13 -10 -19 3 -32 12 -12 13 -16 3 -17 -10 0 -10 -2
0 -6 6 -2 10 -9 6 -14 -3 -5 0 -9 5 -9 6 0 11 -9 11 -20 0 -11 4 -20 8 -20 8
0 10 -6 14 -49 1 -10 8 -17 15 -14 8 3 11 -2 8 -16 -2 -12 0 -21 6 -21 5 0 9
-7 9 -15 0 -8 5 -15 10 -15 6 0 10 -7 10 -15 0 -8 5 -15 10 -15 6 0 10 -7 10
-15 0 -8 5 -15 11 -15 5 0 7 -5 4 -10 -3 -6 1 -13 10 -16 11 -5 13 -9 6 -14
-7 -4 -2 -12 14 -20 14 -8 24 -19 21 -26 -3 -7 2 -15 10 -18 9 -3 12 -11 9
-16 -4 -6 -2 -9 3 -8 11 3 56 -43 60 -63 2 -8 8 -18 14 -24 8 -7 8 -6 3 4 -5
9 -4 12 3 7 7 -4 12 -14 12 -22 0 -8 4 -13 8 -10 5 3 16 -6 26 -19 11 -15 24
-22 34 -18 10 4 14 3 10 -2 -10 -11 32 -46 45 -38 5 3 7 2 4 -4 -4 -5 5 -16
18 -23 13 -7 22 -18 18 -23 -3 -6 -1 -7 5 -3 6 3 17 0 25 -8 8 -8 17 -12 21
-9 3 4 6 0 6 -7 0 -7 3 -10 7 -7 9 9 32 -25 26 -39 -2 -7 -13 -11 -24 -9 -10
2 -19 0 -19 -5 0 -5 -7 -6 -17 -3 -11 4 -14 3 -9 -5 5 -8 2 -10 -8 -6 -9 3
-16 2 -16 -2 0 -5 -18 -9 -40 -8 -23 0 -43 -3 -46 -7 -2 -5 -11 -6 -19 -2 -8
3 -15 0 -15 -7 0 -9 -4 -9 -13 -2 -8 7 -18 6 -31 -4 -24 -17 -40 -18 -30 -1 6
9 5 9 -7 0 -8 -6 -30 -10 -51 -9 -20 0 -34 -3 -31 -7 3 -5 -3 -8 -13 -7 -11 1
-21 1 -24 0 -3 -1 -26 -3 -53 -5 -26 -2 -53 -7 -59 -11 -6 -4 -8 -3 -5 2 3 5
-3 10 -13 10 -10 0 -17 -3 -15 -6 2 -4 -15 -5 -38 -4 -23 1 -42 3 -42 4 0 1
-12 3 -27 4 -16 1 -28 -2 -28 -7 0 -5 -6 -5 -12 0 -7 6 -23 9 -35 8 -13 -1
-23 1 -23 5 0 6 -26 10 -68 10 -14 0 -20 4 -16 11 4 8 0 7 -15 0 -17 -10 -22
-9 -27 4 -3 8 -10 12 -15 9 -5 -3 -9 -1 -9 4 0 6 -6 10 -12 9 -31 -1 -49 4
-44 11 2 4 -5 14 -17 22 -21 12 -21 12 -8 -6 7 -10 0 -4 -18 14 -17 17 -34 32
-38 31 -4 0 -10 8 -14 18 -6 13 -8 14 -8 3 -1 -13 -3 -13 -10 0 -6 8 -7 18 -5
22 3 5 -2 11 -10 14 -9 3 -16 12 -16 20 0 8 -4 14 -8 14 -4 0 -9 14 -10 32 -2
18 -8 36 -15 40 -9 6 -9 8 2 8 11 0 11 3 0 17 -12 15 -12 16 1 8 12 -7 13 -6
3 6 -16 20 -17 31 -1 40 11 7 11 9 -1 9 -10 0 -11 3 -2 14 8 10 9 16 1 21 -7
4 -6 13 2 28 6 12 11 23 10 25 -6 8 -1 72 6 68 4 -2 8 9 9 26 0 17 6 34 13 38
7 4 10 12 6 18 -3 5 1 15 9 22 8 7 12 16 9 21 -3 5 0 9 6 9 6 0 9 4 5 9 -3 6
3 14 12 20 10 6 13 11 6 11 -7 0 -1 12 13 27 14 15 23 32 20 38 -2 6 5 17 15
24 11 6 17 16 14 21 -3 6 1 10 10 10 9 0 13 4 10 10 -3 5 5 21 18 34 14 14 22
28 19 31 -4 4 1 11 11 16 9 6 17 17 17 25 0 8 3 13 8 11 10 -6 33 19 24 27 -3
4 4 9 16 13 12 3 19 9 16 14 -3 5 2 19 10 31 9 12 16 18 16 12 0 -5 -6 -16
-12 -24 -11 -12 -10 -12 5 -1 9 7 17 17 17 22 0 9 18 32 59 75 21 21 22 24 5
19 -12 -4 -10 -1 6 8 14 9 28 13 32 11 4 -3 5 2 2 10 -4 11 0 16 10 16 9 0 19
7 22 15 5 11 9 12 19 2 9 -8 10 -18 4 -29z m2791 34 c0 -5 11 -15 25 -22 13
-7 22 -17 19 -22 -3 -4 -1 -8 5 -8 15 0 51 -42 45 -52 -3 -4 0 -8 6 -8 15 0
41 -26 33 -34 -4 -3 1 -6 10 -6 10 0 17 -7 17 -15 0 -9 7 -18 15 -21 8 -4 12
-10 9 -15 -3 -5 1 -9 9 -9 10 0 14 -7 10 -22 -3 -16 -2 -19 4 -10 7 9 13 6 21
-13 7 -16 17 -23 24 -19 7 5 8 3 3 -6 -5 -8 -2 -17 6 -24 15 -12 50 -62 49
-71 0 -5 10 -19 38 -50 6 -7 12 -17 12 -21 0 -4 8 -16 18 -27 9 -11 11 -17 4
-13 -11 7 -12 4 -3 -12 6 -12 16 -24 21 -27 6 -4 8 -11 5 -16 -4 -5 -2 -9 3
-9 16 0 33 -48 19 -54 -7 -2 -5 -5 5 -5 11 -1 16 -8 13 -21 -2 -11 0 -18 6
-15 5 4 9 -5 9 -19 0 -14 6 -26 13 -27 8 0 8 -2 -2 -6 -10 -4 -10 -7 -1 -13 7
-4 13 -33 14 -71 0 -35 5 -67 10 -70 5 -4 5 -13 0 -20 -5 -8 -9 -22 -10 -31
-1 -10 -2 -25 -3 -34 0 -8 -5 -13 -10 -10 -4 3 -7 -5 -6 -19 2 -13 -3 -26 -11
-29 -8 -3 -14 -12 -14 -20 0 -17 -54 -76 -70 -76 -6 0 -8 -4 -5 -10 3 -5 -1
-10 -9 -10 -9 0 -16 -3 -16 -7 0 -9 -49 -33 -67 -33 -7 0 -13 -4 -13 -9 0 -5
-11 -8 -25 -7 -14 2 -30 -3 -36 -10 -6 -7 -18 -10 -26 -7 -11 4 -14 2 -9 -5 5
-9 0 -9 -19 -2 -15 6 -24 6 -20 1 6 -10 -2 -12 -72 -12 -26 -1 -43 -6 -43 -12
0 -7 -5 -5 -10 3 -5 8 -10 10 -10 4 0 -6 -16 -9 -40 -7 -26 2 -40 -1 -40 -9 0
-6 -7 -3 -15 8 -10 13 -14 14 -15 5 0 -11 -3 -11 -15 -1 -12 10 -15 10 -16 -1
0 -10 -2 -11 -6 -1 -2 6 -9 12 -14 12 -6 0 -7 -5 -3 -11 4 -8 1 -8 -12 -1 -11
5 -25 7 -31 5 -7 -3 -13 0 -13 7 0 8 -6 8 -20 0 -15 -8 -20 -8 -20 1 0 6 -6 9
-14 6 -7 -3 -19 0 -25 6 -8 8 -11 8 -11 -1 0 -8 -7 -9 -24 -2 -13 5 -27 6 -31
2 -3 -3 -10 0 -15 8 -8 12 -10 12 -10 2 0 -10 -9 -9 -35 7 -23 14 -37 17 -41
9 -5 -7 -2 -8 6 -3 9 5 11 4 6 -3 -5 -9 -13 -8 -29 2 -12 8 -34 13 -49 12 -14
-1 -24 2 -21 7 3 5 -4 6 -16 2 -11 -3 -21 -2 -21 3 0 5 -6 10 -12 9 -40 -1
-49 4 -46 26 2 12 9 21 16 20 6 -2 12 1 12 7 0 5 7 7 15 3 10 -3 15 0 13 8 -2
7 7 18 20 24 12 5 22 13 22 17 0 5 6 8 14 8 8 0 18 5 22 12 5 7 3 8 -7 3 -8
-5 0 5 17 21 17 16 39 34 50 41 10 6 18 16 17 22 -2 6 0 10 5 9 4 -2 25 15 47
37 22 22 43 39 48 37 5 -1 6 2 3 7 -3 5 5 16 19 25 14 9 25 21 25 27 0 6 7 17
15 26 8 8 12 20 8 26 -4 7 1 6 10 -2 15 -12 17 -12 12 2 -4 8 -1 18 4 22 6 3
9 11 6 16 -4 5 1 9 9 9 14 0 20 12 17 33 0 4 3 7 9 7 6 0 9 3 8 8 -3 15 15 42
25 35 6 -3 7 -1 3 6 -4 6 2 25 14 41 14 20 17 30 9 30 -8 0 -6 5 5 13 9 7 18
22 19 35 0 12 5 22 10 22 4 0 6 3 4 8 -3 4 3 24 13 45 10 20 13 34 7 30 -8 -5
-8 -2 0 9 7 8 10 18 6 21 -3 4 0 7 7 7 7 0 10 3 7 7 -4 3 0 14 9 24 11 12 12
19 4 24 -8 5 -6 13 7 28 10 11 12 17 4 12 -10 -6 -12 -4 -5 6 10 16 13 30 15
79 1 19 7 41 12 48 6 8 6 12 -2 12 -9 0 -9 5 -1 20 8 15 8 20 -1 20 -8 0 -9 4
0 13 6 8 8 17 5 20 -8 7 4 27 17 27 5 0 9 -4 9 -8z m-1991 -1182 c14 -14 26
-24 28 -23 11 6 42 -11 36 -21 -3 -6 -3 -8 2 -4 4 4 23 1 41 -7 19 -8 34 -12
34 -9 0 2 16 -3 36 -11 20 -8 48 -18 63 -20 14 -3 37 -8 51 -11 14 -3 32 -7
40 -9 8 -2 17 -4 20 -5 3 -1 8 -2 13 -1 4 0 7 -5 7 -11 0 -9 4 -8 10 2 5 8 10
11 10 5 0 -6 34 -10 83 -10 45 0 85 -4 89 -9 4 -6 13 -4 23 4 10 8 19 10 23 4
9 -12 35 -17 28 -5 -3 5 9 7 27 6 17 -2 37 1 44 7 7 5 13 5 17 0 3 -6 20 -7
41 -2 19 4 35 5 35 1 0 -3 5 1 10 9 9 13 10 13 10 0 0 -10 3 -11 8 -3 4 6 25
14 47 17 88 12 109 16 123 28 13 11 14 11 7 -1 -6 -11 -2 -10 16 2 13 9 31 17
41 17 10 0 18 5 18 11 0 5 4 8 9 4 5 -3 12 -1 16 5 4 6 11 8 16 5 5 -4 9 -1 9
5 0 6 6 10 14 8 8 -2 25 10 39 26 32 37 57 30 52 -14 -3 -18 -9 -38 -14 -44
-7 -9 -7 -17 2 -26 10 -10 9 -11 -2 -5 -11 6 -13 3 -9 -13 4 -12 2 -20 -3 -16
-5 3 -9 -1 -10 -8 0 -11 -4 -28 -12 -63 -1 -5 -6 -16 -11 -23 -4 -7 -5 -16 -2
-19 3 -3 -2 -12 -12 -20 -9 -8 -11 -12 -4 -8 14 7 16 -4 3 -24 -5 -7 -14 -10
-20 -7 -6 4 -11 1 -11 -6 0 -9 -3 -9 -10 2 -6 9 -10 10 -10 3 0 -8 -9 -9 -30
-3 -20 6 -30 5 -30 -2 0 -6 -7 -5 -17 3 -11 10 -14 10 -9 2 5 -9 -2 -13 -24
-13 -22 0 -29 -4 -24 -12 5 -8 0 -7 -11 2 -11 9 -16 10 -11 3 4 -8 1 -13 -8
-13 -9 0 -16 -4 -16 -10 0 -5 -6 -9 -12 -7 -7 1 -12 -3 -11 -10 2 -6 -6 -15
-17 -18 -11 -4 -20 -13 -20 -21 0 -8 -3 -14 -8 -14 -4 0 -13 -9 -20 -21 -9
-14 -10 -19 -2 -14 9 6 9 2 1 -13 -6 -11 -11 -36 -11 -54 0 -19 -6 -40 -12
-47 -10 -11 -10 -13 0 -7 11 7 18 -24 13 -61 -1 -7 3 -13 9 -13 5 0 10 -7 10
-16 0 -9 10 -25 23 -36 12 -11 16 -17 10 -13 -7 3 -13 1 -13 -4 0 -6 7 -11 16
-11 14 0 15 -2 3 -17 -12 -14 -12 -16 0 -8 9 5 7 -2 -5 -17 -10 -15 -21 -25
-24 -25 -3 1 -17 -9 -30 -22 -14 -13 -19 -20 -11 -16 10 5 12 4 7 -4 -4 -6
-12 -8 -18 -5 -6 4 -14 0 -19 -7 -4 -8 -13 -15 -19 -15 -5 -1 -12 -3 -15 -4
-3 -1 -11 -3 -17 -4 -7 -1 -12 -8 -10 -15 1 -7 -2 -10 -8 -6 -6 4 -18 1 -27
-7 -14 -11 -16 -11 -8 1 6 11 5 12 -6 5 -23 -14 -31 -14 -171 -13 -10 0 -18 4
-18 8 0 4 -7 8 -15 9 -8 1 -22 3 -30 4 -8 1 -12 5 -9 10 3 4 -2 8 -10 8 -9 0
-19 1 -23 1 -14 2 -78 63 -76 71 2 4 -2 8 -8 8 -6 0 -25 16 -43 35 -19 19 -32
35 -29 35 5 0 -17 27 -43 51 -14 13 -20 28 -17 40 4 13 1 19 -8 17 -8 -2 -13
3 -11 10 1 6 -2 12 -6 12 -4 0 -16 14 -26 31 -13 22 -14 29 -5 24 8 -5 3 4
-10 18 -14 15 -20 27 -15 27 5 0 5 4 -1 8 -15 10 -35 49 -35 67 0 8 -6 15 -12
15 -9 0 -8 4 2 10 12 8 12 10 -5 10 -17 0 -17 2 -5 10 12 8 12 10 -5 10 -14 0
-16 3 -7 9 10 6 10 10 -3 21 -8 7 -15 20 -15 29 0 9 -7 25 -15 35 -18 24 -19
39 -2 31 6 -4 4 0 -5 8 -10 8 -15 17 -11 21 4 4 2 11 -5 15 -7 4 -14 22 -15
39 -1 18 -6 32 -11 32 -4 0 -6 7 -2 15 3 8 1 15 -4 15 -5 0 -7 7 -4 15 4 8 1
15 -4 15 -6 0 -10 13 -10 30 1 16 5 27 10 24 4 -3 8 0 8 5 0 17 23 8 49 -19z"/>
<path d="M1804 2451 c4 -6 -4 -9 -24 -6 -16 2 -32 -1 -36 -6 -3 -5 -10 -7 -15
-4 -5 4 -9 1 -9 -5 0 -6 -4 -9 -9 -5 -5 3 -18 -6 -29 -20 -11 -13 -22 -22 -24
-19 -3 3 -9 -7 -12 -21 -4 -16 -11 -23 -18 -19 -7 5 -9 2 -5 -8 3 -9 3 -19 -1
-22 -11 -11 -11 -86 1 -86 5 0 7 -3 4 -7 -4 -3 -1 -13 6 -21 10 -13 9 -14 -3
-7 -8 4 -5 -3 8 -17 12 -13 19 -29 15 -34 -5 -5 -4 -6 1 -2 5 4 16 -1 25 -11
9 -11 26 -21 36 -23 11 -1 23 -7 26 -11 9 -12 97 -11 113 2 11 9 15 9 19 -1 4
-8 6 -7 6 4 1 12 6 15 19 11 9 -3 14 -2 10 2 -5 5 1 14 12 22 11 8 20 20 20
27 0 8 7 19 15 26 8 7 12 16 9 21 -3 5 1 9 8 9 10 0 10 2 1 8 -7 5 -9 13 -3
21 4 8 4 25 -1 38 -6 16 -5 23 4 23 9 0 8 3 -1 9 -8 4 -13 10 -11 12 4 8 -13
50 -18 45 -3 -3 -14 6 -25 19 -11 14 -24 23 -29 20 -5 -4 -9 -1 -9 4 0 6 -7
11 -16 11 -9 0 -12 5 -8 12 4 7 3 8 -4 4 -6 -4 -21 -2 -33 5 -14 7 -19 7 -15
0z"/>
<path d="M3025 1904 c-22 -6 -33 -12 -25 -13 11 -1 12 -3 3 -9 -6 -4 -17 -20
-22 -35 -7 -18 -7 -26 -1 -22 6 3 10 -1 10 -9 0 -9 5 -16 10 -16 6 0 10 -7 10
-15 0 -11 10 -14 38 -12 44 2 85 37 75 63 -5 13 -3 15 8 9 8 -5 5 2 -6 15 -11
13 -14 20 -6 15 10 -5 12 -4 7 3 -4 7 -14 12 -22 12 -8 0 -13 4 -10 9 10 15
-27 18 -69 5z"/>
</g>
</svg>
